<svg width="100mm" height="100mm" version="1.1" viewBox="0 0 100 100" xmlns="http://www.w3.org/2000/svg" xmlns:xlink="http://www.w3.org/1999/xlink">
 <defs>
  <linearGradient id="linearGradient936" x1="88.25" x2="-41.08" y1="208.83" y2="307.69" gradientTransform="matrix(.26458 0 0 .26458 -11.048 145.18)" gradientUnits="userSpaceOnUse">
   <stop stop-color="#ff3d00" offset="0"/>
   <stop stop-color="#fff" offset="1"/>
  </linearGradient>
  <linearGradient id="linearGradient946" x1="182.86" x2="360.76" y1="278.66" y2="464.05" gradientTransform="matrix(.26458 0 0 .26458 -11.048 145.18)" gradientUnits="userSpaceOnUse">
   <stop stop-color="#3949ab" offset="0"/>
   <stop stop-color="#fff" offset="1"/>
  </linearGradient>
  <linearGradient id="linearGradient954" x1="95.817" x2="219.09" y1="197.01" y2="122.54" gradientTransform="matrix(.26458 0 0 .26458 -11.048 145.18)" gradientUnits="userSpaceOnUse">
   <stop stop-color="#606dbb" offset="0"/>
   <stop stop-color="#fff" offset="1"/>
  </linearGradient>
 </defs>
 <g transform="translate(11.048 -145.18)">
  <g transform="translate(9.0607 .37075)">
   <path d="m52.737 145.18-36.797 5.8037a146.27 146.41 0 0 0 17.83 50.442l0.0041-3e-3a22.735 22.735 0 0 1 2.3076 5.4476 22.735 22.735 0 0 0 2.0341-0.64822 22.735 22.735 0 0 1-2.0341 0.64822 22.735 22.735 0 0 1-2.2404 17.304 22.735 22.735 0 0 1-3.581 4.6374 22.735 22.735 0 0 0 1.3797 1.2672 22.735 22.735 0 0 1-1.3797-1.2672 22.735 22.735 0 0 1-27.476 3.6842 22.735 22.735 0 0 1-7.9538-7.7218 41.336 41.336 0 0 0 14.762 14.53 41.336 41.336 0 0 0 55.233-13.221 22.735 22.735 0 0 1-0.06867 0.086 41.336 41.336 0 0 0 1.2978-2.0088 41.336 41.336 0 0 0 0.80531-1.5164 22.735 22.735 0 0 1-0.04644 0.10916 41.336 41.336 0 0 0-0.79506-39.975l0.0066-4e-3a109.02 109.12 0 0 1-13.289-37.595zm-0.51886 45.579a22.735 22.735 0 0 1-0.02113 0.0798 22.735 22.735 0 0 0-0.08566-0.018zm1.7592 0.64639a22.735 22.735 0 0 1 1.0544 0.41196 22.735 22.735 0 0 0-1.0544-0.41196zm2.0992 0.86364a22.735 22.735 0 0 1 1.6619 0.84943 22.735 22.735 0 0 0-1.6619-0.84943zm-4.4355 0.29222a22.735 22.735 0 0 1-0.41291 1.0592 22.735 22.735 0 0 0 0.41291-1.0592zm-0.86748 2.0985a22.735 22.735 0 0 1-0.82273 1.6132 22.735 22.735 0 0 0 0.82273-1.6132zm12.276 2.6974a22.735 22.735 0 0 1 0.7941 0.94822 22.735 22.735 0 0 0-0.7941-0.94822zm-14.258 0.70844a22.735 22.735 0 0 1-0.69936 0.89685 22.735 22.735 0 0 0 0.69936-0.89685zm-1.408 1.7834a22.735 22.735 0 0 1-0.78331 0.82028 22.735 22.735 0 0 0 0.78331-0.82028zm-1.5792 1.634a22.735 22.735 0 0 1-0.86097 0.73781 22.735 22.735 0 0 0 0.86097-0.73781zm21.034 1.4333a22.735 22.735 0 0 1 0.5226 1.2286 22.735 22.735 0 0 0-0.5226-1.2286zm-22.768 0.0341a22.735 22.735 0 0 1-0.93381 0.65065 22.735 22.735 0 0 0 0.93381-0.65065zm-1.8717 1.2874a22.735 22.735 0 0 1-0.99543 0.55475 22.735 22.735 0 0 0 0.99543-0.55475zm25.522 0.76509a22.735 22.735 0 0 1 0.43683 1.4011 22.735 22.735 0 0 0-0.43683-1.4011zm-27.513 0.32907a22.735 22.735 0 0 1-1.0423 0.45115 22.735 22.735 0 0 0 1.0423-0.45115zm28.184 1.8348a22.735 22.735 0 0 1 0.32383 1.5793 22.735 22.735 0 0 0-0.32383-1.5793zm0.45168 2.2193a22.735 22.735 0 0 1 0.17869 1.7409 22.735 22.735 0 0 0-0.17869-1.7409zm0.22878 2.254a22.735 22.735 0 0 1 4e-3 1.8718 22.735 22.735 0 0 0-4e-3 -1.8718zm3e-3 2.2665a22.735 22.735 0 0 1-0.19258 1.9634 22.735 22.735 0 0 0 0.19258-1.9634zm-0.2228 2.2565a22.735 22.735 0 0 1-0.41067 2.0496 22.735 22.735 0 0 0 0.41067-2.0496zm-0.44602 2.2219a22.735 22.735 0 0 1-0.64083 2.0884 22.735 22.735 0 0 0 0.64083-2.0884zm-0.66572 2.1682a22.735 22.735 0 0 1-0.87784 2.0893 22.735 22.735 0 0 0 0.87784-2.0893zm-4.0762 6.9878a22.735 22.735 0 0 1-0.93808 1.0187 22.735 22.735 0 0 0 0.93808-1.0187zm-1.5584 1.654a22.735 22.735 0 0 1-1.0306 0.91597 22.735 22.735 0 0 0 1.0306-0.91597zm-1.7166 1.4906a22.735 22.735 0 0 1-1.1092 0.80307 22.735 22.735 0 0 0 1.1092-0.80307zm-27.863 0.10713a22.735 22.735 0 0 0 0.90764 0.67992 22.735 22.735 0 0 1-0.90764-0.67992zm26.005 1.2052a22.735 22.735 0 0 1-1.173 0.68196 22.735 22.735 0 0 0 1.173-0.68196zm-23.527 0.49869a22.735 22.735 0 0 0 1.7323 0.88734 22.735 22.735 0 0 1-1.7323-0.88734zm21.547 0.62139a22.735 22.735 0 0 1-1.2215 0.55528 22.735 22.735 0 0 0 1.2215-0.55528zm-18.796 0.6999a22.735 22.735 0 0 0 1.0905 0.42722 22.735 22.735 0 0 1-1.0905-0.42722zm16.713 0.21671a22.735 22.735 0 0 1-1.2559 0.42551 22.735 22.735 0 0 0 1.2559-0.42551zm-14.589 0.53328a22.735 22.735 0 0 0 1.1521 0.32309 22.735 22.735 0 0 1-1.1521-0.32309zm12.425 0.17046a22.735 22.735 0 0 1-1.2755 0.29414 22.735 22.735 0 0 0 1.2755-0.29414zm-10.238 0.36539a22.735 22.735 0 0 0 1.2036 0.21083 22.735 22.735 0 0 1-1.2036-0.21083zm8.0132 0.11844a22.735 22.735 0 0 1-1.2783 0.16278 22.735 22.735 0 0 0 1.2783-0.16278zm-5.7812 0.19845a22.735 22.735 0 0 0 1.2411 0.0912 22.735 22.735 0 0 1-1.2411-0.0912zm3.5182 0.0604a22.735 22.735 0 0 1-1.267 0.0337 22.735 22.735 0 0 0 1.267-0.0337z" fill="url(#linearGradient946)"/>
   <path d="m18.644 163.91a41.336 41.336 0 0 0-24.18 18.925 41.336 41.336 0 0 0-0.87495 39.646 22.735 22.735 0 0 1-0.011001-0.0267 41.336 41.336 0 0 0 1.2718 2.3435 22.735 22.735 0 0 0 7.9357 7.6955 22.735 22.735 0 0 0 27.476-3.6843 22.735 22.735 0 0 0 3.5811-4.6374 22.735 22.735 0 0 0 2.2403-17.304 22.735 22.735 0 0 1-11.646 4e-3 22.735 22.735 0 0 0-0.34936 1.6139 22.735 22.735 0 0 1 0.34936-1.6139 22.735 22.735 0 0 1-5.5416-2.2797 22.735 22.735 0 0 1-10.562-13.752 22.735 22.735 0 0 1 2.2404-17.304 22.735 22.735 0 0 1 8.347-8.305 146.27 146.41 0 0 1-0.27599-1.3196zm5.2534 45.694a22.735 22.735 0 0 0-0.12838 1.1296 22.735 22.735 0 0 1 0.12838-1.1296zm-0.20517 2.2606a22.735 22.735 0 0 0-0.01495 1.137 22.735 22.735 0 0 1 0.01495-1.137zm0.02157 2.2713a22.735 22.735 0 0 0 0.09847 1.1317 22.735 22.735 0 0 1-0.09847-1.1317zm0.24811 2.2567a22.735 22.735 0 0 0 0.21094 1.1159 22.735 22.735 0 0 1-0.21094-1.1159zm0.4724 2.222a22.735 22.735 0 0 0 0.32063 1.087 22.735 22.735 0 0 1-0.32063-1.087zm0.692 2.1634a22.735 22.735 0 0 0 0.42733 1.0488 22.735 22.735 0 0 1-0.42733-1.0488zm0.90411 2.0824a22.735 22.735 0 0 0 0.52986 1.0012 22.735 22.735 0 0 1-0.52986-1.0012zm1.1073 1.9818a22.735 22.735 0 0 0 0.62877 0.94534 22.735 22.735 0 0 1-0.62877-0.94534zm1.2988 1.8602a22.735 22.735 0 0 0 0.72137 0.87955 22.735 22.735 0 0 1-0.72137-0.87955z" fill="url(#linearGradient936)"/>
   <path d="m18.921 165.24a22.735 22.735 0 0 0-8.3481 8.3 22.735 22.735 0 0 0-2.2403 17.304 22.735 22.735 0 0 0 10.562 13.752 22.735 22.735 0 0 0 5.5416 2.2797 22.735 22.735 0 0 1 2.246-5.4343 22.735 22.735 0 0 1 3.5811-4.6375 22.735 22.735 0 0 0-1.3794-1.2668 22.735 22.735 0 0 1 1.3794 1.2668 22.735 22.735 0 0 1 0.70236-0.63986 146.27 146.41 0 0 1-12.045-30.925zm-3.8341 24.862a22.735 22.735 0 0 1 0.93071 0.0844 22.735 22.735 0 0 0-1.1303-0.0824 22.735 22.735 0 0 1 0.19962-2e-3zm-1.337 0.0127a22.735 22.735 0 0 0-1.1346 0.0309 22.735 22.735 0 0 1 1.1346-0.0309zm-2.2616 0.15488a22.735 22.735 0 0 0-1.129 0.14428 22.735 22.735 0 0 1 1.129-0.14428zm5.6627 0.0196a22.735 22.735 0 0 1 1.118 0.19525 22.735 22.735 0 0 0-1.118-0.19525zm2.2342 0.41045a22.735 22.735 0 0 1 1.0949 0.30632 22.735 22.735 0 0 0-1.0949-0.30632zm2.1812 0.63102a22.735 22.735 0 0 1 1.0611 0.41504 22.735 22.735 0 0 0-1.0611-0.41504zm2.109 0.84632a22.735 22.735 0 0 1 1.845 0.94385 22.735 22.735 0 0 0-1.845-0.94385zm3.4151 1.9679a22.735 22.735 0 0 1 0.90678 0.67918 22.735 22.735 0 0 0-0.90678-0.67918z" fill="url(#linearGradient954)"/>
   <g fill="#606dbb" stroke="#bbc2e9" stroke-linecap="round" stroke-width="2.0668">
    <path d="m27.729 160.95 19.475-3.563"/>
    <path d="m29.93 168.95 19.388-4.0073"/>
    <path d="m33.195 177.28 19.208-4.7979"/>
   </g>
  </g>
 </g>
</svg>
