<svg width="380" height="120" version="1.1" viewBox="0 0 100.54 31.75" xmlns="http://www.w3.org/2000/svg">
 <g transform="translate(0 -265.25)" fill="#606dbb">
  <text x="27.484972" y="275.72308" font-family="Helvetica" font-size="9.8778px" font-weight="bold" letter-spacing="0px" stroke-width=".26458" word-spacing="0px" style="line-height:1.25" xml:space="preserve"><tspan x="27.484972" y="275.72308" fill="#606dbb" font-family="'Noto Serif'" font-size="7.0556px" font-weight="bold" stroke-width=".26458">Compatible</tspan></text>
  <path d="m18.177 268.43h-2.1279c-0.19818 0-0.38892 0.0743-0.53508 0.20808l-2.4351 2.2295c-0.0024 2e-3 -5e-3 8e-3 -0.0074 0.01-0.41122 0.38645-0.40379 1.0033-0.05202 1.3872 0.31461 0.34432 0.97603 0.43599 1.3897 0.0668 0.0024-2e-3 0.0074-2e-3 0.0099-6e-3l1.9793-1.8133c0.16102-0.14616 0.4137-0.13626 0.55985 0.0248 0.14863 0.16102 0.13625 0.41122-0.02476 0.55986l-0.64656 0.59206 3.6068 2.9281c0.07184 0.0594 0.13625 0.12386 0.1957 0.19075v-4.7934l-1.3526-1.3526c-0.14616-0.14862-0.34929-0.23286-0.55985-0.23286zm2.7076 1.5904v5.5465c0 0.43847 0.35424 0.79272 0.79271 0.79272h1.5854v-6.3392zm1.1891 5.5465c-0.218 0-0.39636-0.17836-0.39636-0.39635 0-0.218 0.17836-0.39635 0.39636-0.39635 0.218 0 0.39636 0.17835 0.39636 0.39635 0 0.21799-0.17836 0.39635-0.39636 0.39635zm-14.665 0.79025h1.5854c0.43847 0 0.79271-0.35425 0.79271-0.79271v-5.544h-2.3781zm1.1891-1.583c0.218 0 0.39636 0.17835 0.39636 0.39635 0 0.21799-0.17836 0.39635-0.39636 0.39635-0.218 0-0.39636-0.17836-0.39636-0.39635 0-0.22047 0.17836-0.39635 0.39636-0.39635zm10.798 0.46076-3.6985-3.0024-0.74317 0.68123c-0.73574 0.67132-1.8629 0.60691-2.5193-0.10899-0.66638-0.7283-0.61435-1.8554 0.109-2.5193l2.0264-1.8554h-2.0759c-0.21056 0-0.41122 0.0842-0.55985 0.23285l-1.355 1.3526v5.5465h0.45333l2.2419 2.0289c0.67876 0.55243 1.6771 0.44838 2.2295-0.23038l5e-3 -6e-3 0.44342 0.38396c0.39388 0.32206 0.97603 0.26012 1.2956-0.13375l0.77785-0.95622 0.13377 0.10899c0.33938 0.27496 0.83978 0.22543 1.1148-0.11644l0.23531-0.28935c0.27745-0.34186 0.22543-0.83978-0.11395-1.1172z" stroke-width=".024772"/>
  <text x="7.8114095" y="286.46796" font-family="'Noto Serif'" font-size="4.2333px" letter-spacing="0px" stroke-width=".26458" word-spacing="0px" style="line-height:1.25" xml:space="preserve"><tspan x="7.8114095" y="286.46796">Weblab supports the Jupyter-Notebook</tspan><tspan x="7.8114095" y="291.99615">format.</tspan></text>
 </g>
</svg>
