<svg width="380" height="120" version="1.1" viewBox="0 0 100.54 31.75" xmlns="http://www.w3.org/2000/svg">
 <g transform="translate(0 -265.25)" fill="#606dbb">
  <text x="27.640001" y="275.72308" font-family="Helvetica" font-size="9.8778px" font-weight="bold" letter-spacing="0px" stroke-width=".26458" word-spacing="0px" style="line-height:1.25" xml:space="preserve"><tspan x="27.640001" y="275.72308" fill="#606dbb" font-family="'Noto Serif'" font-size="7.0556px" font-weight="bold" stroke-width=".26458">Javascript</tspan></text>
  <path d="m7.4083 268.63v9.3205h9.3205v-9.3205zm5.0722 7.2692c0 0.90708-0.5326 1.3211-1.3086 1.3211-0.70112 0-1.1068-0.362-1.3149-0.80098l0.7136-0.43065c0.13731 0.24341 0.26214 0.44938 0.56381 0.44938 0.28711 0 0.47019-0.11235 0.47019-0.55133v-2.9772h0.87588zm2.0722 1.3211c-0.81346 0-1.3398-0.38696-1.5957-0.8946l0.7136-0.41194c0.18724 0.30584 0.43274 0.5326 0.8634 0.5326 0.362 0 0.59502-0.18099 0.59502-0.43273 0-0.29959-0.23718-0.40569-0.6387-0.58253l-0.21845-0.0936c-0.63246-0.26839-1.0506-0.6075-1.0506-1.3211 0-0.65743 0.50139-1.1567 1.2816-1.1567 0.55757 0 0.95702 0.19348 1.2441 0.70111l-0.6824 0.4369c-0.1498-0.26838-0.31207-0.37449-0.56381-0.37449-0.2559 0-0.41817 0.16228-0.41817 0.37449 0 0.26214 0.16228 0.36825 0.53884 0.53261l0.21845 0.0936c0.74481 0.31832 1.163 0.64495 1.163 1.3773 0 0.78642-0.61998 1.2192-1.4501 1.2192z" stroke-width=".020805"/>
  <text x="7.6150389" y="286.44522" font-family="'Noto Serif'" font-size="4.2333px" letter-spacing="0px" stroke-width=".26458" word-spacing="0px" style="line-height:1.25" xml:space="preserve"><tspan x="7.6150389" y="286.44522">Harness Javascript libraries for machine</tspan><tspan x="7.6150389" y="291.97342">learning and data science.</tspan></text>
 </g>
</svg>
