<?xml version="1.0" encoding="UTF-8" standalone="no"?>
<svg
   width="1168"
   height="364"
   viewBox="0 0 309.03333 96.308336"
   version="1.1"
   id="svg8"
   inkscape:version="1.1 (ce6663b3b7, 2021-05-25)"
   sodipodi:docname="landing.svg"
   inkscape:export-filename="/home/jan/workspace/inkscape/weblab/landing.png"
   inkscape:export-xdpi="390"
   inkscape:export-ydpi="390"
   xmlns:inkscape="http://www.inkscape.org/namespaces/inkscape"
   xmlns:sodipodi="http://sodipodi.sourceforge.net/DTD/sodipodi-0.dtd"
   xmlns:xlink="http://www.w3.org/1999/xlink"
   xmlns="http://www.w3.org/2000/svg"
   xmlns:svg="http://www.w3.org/2000/svg"
   xmlns:rdf="http://www.w3.org/1999/02/22-rdf-syntax-ns#"
   xmlns:cc="http://creativecommons.org/ns#"
   xmlns:dc="http://purl.org/dc/elements/1.1/">
  <defs
     id="defs2">
    <linearGradient
       inkscape:collect="always"
       id="linearGradient910">
      <stop
         style="stop-color:#606dbb;stop-opacity:1"
         offset="0"
         id="stop906" />
      <stop
         style="stop-color:#273377;stop-opacity:1"
         offset="1"
         id="stop908" />
    </linearGradient>
    <linearGradient
       inkscape:collect="always"
       id="linearGradient2381">
      <stop
         style="stop-color:#ff3d00;stop-opacity:1;"
         offset="0"
         id="stop2377" />
      <stop
         style="stop-color:#fbfbff;stop-opacity:0.99395162"
         offset="1"
         id="stop2379" />
    </linearGradient>
    <linearGradient
       inkscape:collect="always"
       xlink:href="#linearGradient952"
       id="linearGradient954"
       x1="455.16925"
       y1="81.439857"
       x2="485.19324"
       y2="64.497879"
       gradientUnits="userSpaceOnUse"
       gradientTransform="matrix(0.26458334,0,0,0.26458334,-54.702275,142.41902)" />
    <linearGradient
       inkscape:collect="always"
       id="linearGradient952">
      <stop
         style="stop-color:#606dbb;stop-opacity:1;"
         offset="0"
         id="stop948" />
      <stop
         style="stop-color:#fefefe;stop-opacity:1"
         offset="1"
         id="stop950" />
    </linearGradient>
    <linearGradient
       inkscape:collect="always"
       xlink:href="#linearGradient2381"
       id="linearGradient936"
       x1="455.53934"
       y1="88.917191"
       x2="413.83148"
       y2="129.07777"
       gradientUnits="userSpaceOnUse"
       gradientTransform="matrix(0.26458334,0,0,0.26458334,-54.702275,142.41902)" />
    <linearGradient
       inkscape:collect="always"
       xlink:href="#linearGradient942"
       id="linearGradient946"
       gradientUnits="userSpaceOnUse"
       x1="477.71136"
       y1="105.98256"
       x2="521.72784"
       y2="160.20024"
       gradientTransform="matrix(0.26458334,0,0,0.26458334,-54.702275,142.41902)" />
    <linearGradient
       inkscape:collect="always"
       id="linearGradient942">
      <stop
         style="stop-color:#3949ab;stop-opacity:1;"
         offset="0"
         id="stop938" />
      <stop
         style="stop-color:#ffffff;stop-opacity:0"
         offset="1"
         id="stop940" />
    </linearGradient>
    <radialGradient
       inkscape:collect="always"
       xlink:href="#linearGradient910"
       id="radialGradient918"
       cx="103.88412"
       cy="344.203"
       fx="103.88412"
       fy="344.203"
       r="154.51666"
       gradientTransform="matrix(1.1645164,-0.5080153,0.18444885,0.42280955,-81.614233,146.36665)"
       gradientUnits="userSpaceOnUse" />
  </defs>
  <sodipodi:namedview
     id="base"
     pagecolor="#ffffff"
     bordercolor="#666666"
     borderopacity="1.0"
     inkscape:pageopacity="0.0"
     inkscape:pageshadow="2"
     inkscape:zoom="1.0000001"
     inkscape:cx="380.99996"
     inkscape:cy="198.49998"
     inkscape:document-units="px"
     inkscape:current-layer="layer1"
     showgrid="false"
     showborder="true"
     inkscape:window-width="1920"
     inkscape:window-height="1016"
     inkscape:window-x="0"
     inkscape:window-y="0"
     inkscape:window-maximized="1"
     units="px"
     fit-margin-top="0"
     fit-margin-left="0"
     fit-margin-right="0"
     fit-margin-bottom="0"
     inkscape:document-rotation="0"
     inkscape:pagecheckerboard="0" />
  <metadata
     id="metadata5">
    <rdf:RDF>
      <cc:Work
         rdf:about="">
        <dc:format>image/svg+xml</dc:format>
        <dc:type
           rdf:resource="http://purl.org/dc/dcmitype/StillImage" />
        <dc:title />
      </cc:Work>
    </rdf:RDF>
  </metadata>
  <g
     inkscape:label="Ebene 1"
     inkscape:groupmode="layer"
     id="layer1"
     transform="translate(52.991199,-142.41902)">
    <rect
       style="opacity:1;vector-effect:none;fill:url(#radialGradient918);fill-opacity:1;stroke:none;stroke-width:0.267304;stroke-linecap:round;stroke-linejoin:miter;stroke-miterlimit:4;stroke-dasharray:none;stroke-dashoffset:0;stroke-opacity:1"
       id="rect2688"
       width="309.03333"
       height="96.308334"
       x="-52.991192"
       y="142.41902" />
    <g
       id="g5032"
       transform="translate(-0.20318331)">
      <g
         id="g5966"
         transform="translate(-1.2360731)">
        <path
           style="opacity:1;vector-effect:none;fill:url(#linearGradient946);fill-opacity:1;stroke:none;stroke-width:0.0471269;stroke-linecap:butt;stroke-linejoin:miter;stroke-miterlimit:4;stroke-dasharray:none;stroke-dashoffset:0;stroke-opacity:1"
           d="m 75.838137,150.92863 -9.343108,1.47364 a 37.13986,37.174472 0 0 0 4.527185,12.80775 l 0.0011,-5.3e-4 a 5.7726952,5.7726952 0 0 1 0.58594,1.38322 5.7726952,5.7726952 0 0 0 0.516488,-0.16459 5.7726952,5.7726952 0 0 1 -0.516488,0.16459 5.7726952,5.7726952 0 0 1 -0.568857,4.39379 5.7726952,5.7726952 0 0 1 -0.909254,1.17748 5.7726952,5.7726952 0 0 0 0.350326,0.32178 5.7726952,5.7726952 0 0 1 -0.350326,-0.32178 5.7726952,5.7726952 0 0 1 -6.976356,0.93546 5.7726952,5.7726952 0 0 1 -2.019576,-1.96064 10.495809,10.495809 0 0 0 3.748347,3.68941 10.495809,10.495809 0 0 0 14.024414,-3.35704 5.7726952,5.7726952 0 0 1 -0.01744,0.0219 10.495809,10.495809 0 0 0 0.329529,-0.51006 10.495809,10.495809 0 0 0 0.204477,-0.38504 5.7726952,5.7726952 0 0 1 -0.0118,0.0277 10.495809,10.495809 0 0 0 -0.201878,-10.15001 l 0.0018,-8.3e-4 a 27.681518,27.707313 0 0 1 -3.374371,-9.54576 z m -0.131744,11.5731 a 5.7726952,5.7726952 0 0 1 -0.0053,0.0202 5.7726952,5.7726952 0 0 0 -0.02175,-0.004 z m 0.446674,0.16412 a 5.7726952,5.7726952 0 0 1 0.267723,0.10461 5.7726952,5.7726952 0 0 0 -0.267723,-0.10461 z m 0.533003,0.21929 a 5.7726952,5.7726952 0 0 1 0.42198,0.21568 5.7726952,5.7726952 0 0 0 -0.42198,-0.21568 z m -1.126231,0.0742 a 5.7726952,5.7726952 0 0 1 -0.104841,0.26894 5.7726952,5.7726952 0 0 0 0.104841,-0.26894 z m -0.220261,0.53284 a 5.7726952,5.7726952 0 0 1 -0.208899,0.40961 5.7726952,5.7726952 0 0 0 0.208899,-0.40961 z m 3.116951,0.68489 a 5.7726952,5.7726952 0 0 1 0.201633,0.24078 5.7726952,5.7726952 0 0 0 -0.201633,-0.24078 z m -3.62039,0.1799 a 5.7726952,5.7726952 0 0 1 -0.177577,0.22771 5.7726952,5.7726952 0 0 0 0.177577,-0.22771 z m -0.357516,0.45283 a 5.7726952,5.7726952 0 0 1 -0.198892,0.20827 5.7726952,5.7726952 0 0 0 0.198892,-0.20827 z m -0.400984,0.41491 a 5.7726952,5.7726952 0 0 1 -0.218608,0.18733 5.7726952,5.7726952 0 0 0 0.218608,-0.18733 z m 5.340891,0.36393 a 5.7726952,5.7726952 0 0 1 0.132694,0.31195 5.7726952,5.7726952 0 0 0 -0.132694,-0.31195 z m -5.781036,0.009 a 5.7726952,5.7726952 0 0 1 -0.237107,0.16521 5.7726952,5.7726952 0 0 0 0.237107,-0.16521 z m -0.475242,0.3269 a 5.7726952,5.7726952 0 0 1 -0.25275,0.14085 5.7726952,5.7726952 0 0 0 0.25275,-0.14085 z m 6.480366,0.19426 a 5.7726952,5.7726952 0 0 1 0.110917,0.35575 5.7726952,5.7726952 0 0 0 -0.110917,-0.35575 z m -6.985894,0.0836 a 5.7726952,5.7726952 0 0 1 -0.264657,0.11455 5.7726952,5.7726952 0 0 0 0.264657,-0.11455 z m 7.156148,0.46588 a 5.7726952,5.7726952 0 0 1 0.08223,0.40101 5.7726952,5.7726952 0 0 0 -0.08223,-0.40101 z m 0.114688,0.56352 a 5.7726952,5.7726952 0 0 1 0.04537,0.44204 5.7726952,5.7726952 0 0 0 -0.04537,-0.44204 z m 0.05809,0.57232 a 5.7726952,5.7726952 0 0 1 0.0011,0.47526 5.7726952,5.7726952 0 0 0 -0.0011,-0.47526 z m 6.96e-4,0.5755 a 5.7726952,5.7726952 0 0 1 -0.0489,0.49853 5.7726952,5.7726952 0 0 0 0.0489,-0.49853 z m -0.05657,0.57295 a 5.7726952,5.7726952 0 0 1 -0.104274,0.52042 5.7726952,5.7726952 0 0 0 0.104274,-0.52042 z m -0.11325,0.56416 a 5.7726952,5.7726952 0 0 1 -0.162715,0.53026 5.7726952,5.7726952 0 0 0 0.162715,-0.53026 z m -0.169035,0.55052 a 5.7726952,5.7726952 0 0 1 -0.222895,0.53051 5.7726952,5.7726952 0 0 0 0.222895,-0.53051 z m -1.035008,1.77428 a 5.7726952,5.7726952 0 0 1 -0.238187,0.25865 5.7726952,5.7726952 0 0 0 0.238187,-0.25865 z m -0.395697,0.41997 a 5.7726952,5.7726952 0 0 1 -0.261674,0.23258 5.7726952,5.7726952 0 0 0 0.261674,-0.23258 z m -0.435863,0.37848 a 5.7726952,5.7726952 0 0 1 -0.281634,0.2039 5.7726952,5.7726952 0 0 0 0.281634,-0.2039 z m -7.074709,0.0272 a 5.7726952,5.7726952 0 0 0 0.230459,0.17263 5.7726952,5.7726952 0 0 1 -0.230459,-0.17263 z m 6.602914,0.30601 a 5.7726952,5.7726952 0 0 1 -0.297852,0.17316 5.7726952,5.7726952 0 0 0 0.297852,-0.17316 z m -5.973827,0.12663 a 5.7726952,5.7726952 0 0 0 0.439845,0.22531 5.7726952,5.7726952 0 0 1 -0.439845,-0.22531 z m 5.471006,0.15777 a 5.7726952,5.7726952 0 0 1 -0.310159,0.14099 5.7726952,5.7726952 0 0 0 0.310159,-0.14099 z m -4.772525,0.17771 a 5.7726952,5.7726952 0 0 0 0.276889,0.10848 5.7726952,5.7726952 0 0 1 -0.276889,-0.10848 z m 4.243594,0.055 a 5.7726952,5.7726952 0 0 1 -0.318896,0.10804 5.7726952,5.7726952 0 0 0 0.318896,-0.10804 z m -3.704326,0.1354 a 5.7726952,5.7726952 0 0 0 0.292539,0.082 5.7726952,5.7726952 0 0 1 -0.292539,-0.082 z m 3.154756,0.0433 a 5.7726952,5.7726952 0 0 1 -0.323856,0.0747 5.7726952,5.7726952 0 0 0 0.323856,-0.0747 z m -2.599489,0.0928 a 5.7726952,5.7726952 0 0 0 0.305607,0.0535 5.7726952,5.7726952 0 0 1 -0.305607,-0.0535 z m 2.034653,0.0301 a 5.7726952,5.7726952 0 0 1 -0.324565,0.0413 5.7726952,5.7726952 0 0 0 0.324565,-0.0413 z m -1.467913,0.0503 a 5.7726952,5.7726952 0 0 0 0.315125,0.0231 5.7726952,5.7726952 0 0 1 -0.315125,-0.0231 z m 0.893311,0.0154 a 5.7726952,5.7726952 0 0 1 -0.321717,0.009 5.7726952,5.7726952 0 0 0 0.321717,-0.009 z"
           id="path5386"
           inkscape:connector-curvature="0" />
        <path
           style="opacity:1;vector-effect:none;fill:url(#linearGradient936);fill-opacity:1;stroke:none;stroke-width:0.0471269;stroke-linecap:butt;stroke-linejoin:miter;stroke-miterlimit:4;stroke-dasharray:none;stroke-dashoffset:0;stroke-opacity:1"
           d="m 67.181418,155.68528 a 10.495809,10.495809 0 0 0 -6.139674,4.80536 10.495809,10.495809 0 0 0 -0.222159,10.06652 5.7726946,5.7726946 0 0 1 -0.0029,-0.007 10.495809,10.495809 0 0 0 0.322933,0.59506 5.7726952,5.7726952 0 0 0 2.014965,1.95396 5.7726952,5.7726952 0 0 0 6.976386,-0.93548 5.7726952,5.7726952 0 0 0 0.909283,-1.17749 5.7726952,5.7726952 0 0 0 0.568824,-4.39379 5.7726952,5.7726952 0 0 1 -2.957059,8.2e-4 5.7726952,5.7726952 0 0 0 -0.08871,0.4098 5.7726952,5.7726952 0 0 1 0.08871,-0.4098 5.7726952,5.7726952 0 0 1 -1.407084,-0.57883 5.7726952,5.7726952 0 0 1 -2.681801,-3.49185 5.7726946,5.7726946 0 0 1 0.568857,-4.39383 5.7726946,5.7726946 0 0 1 2.1194,-2.10874 37.13986,37.174472 0 0 1 -0.07008,-0.33504 z m 1.333888,11.60222 a 5.7726952,5.7726952 0 0 0 -0.03258,0.28682 5.7726952,5.7726952 0 0 1 0.03258,-0.28682 z m -0.0521,0.574 a 5.7726952,5.7726952 0 0 0 -0.0038,0.28869 5.7726952,5.7726952 0 0 1 0.0038,-0.28869 z m 0.0055,0.57672 a 5.7726952,5.7726952 0 0 0 0.025,0.28736 5.7726952,5.7726952 0 0 1 -0.025,-0.28736 z m 0.063,0.57301 a 5.7726952,5.7726952 0 0 0 0.05356,0.28334 5.7726952,5.7726952 0 0 1 -0.05356,-0.28334 z m 0.119949,0.56419 a 5.7726952,5.7726952 0 0 0 0.08141,0.276 5.7726952,5.7726952 0 0 1 -0.08141,-0.276 z m 0.175705,0.5493 a 5.7726952,5.7726952 0 0 0 0.108506,0.26631 5.7726952,5.7726952 0 0 1 -0.108506,-0.26631 z m 0.229565,0.52875 a 5.7726952,5.7726952 0 0 0 0.134541,0.25421 5.7726952,5.7726952 0 0 1 -0.134541,-0.25421 z m 0.281144,0.50319 a 5.7726952,5.7726952 0 0 0 0.159653,0.24004 5.7726952,5.7726952 0 0 1 -0.159653,-0.24004 z m 0.329775,0.47233 a 5.7726952,5.7726952 0 0 0 0.183162,0.22333 5.7726952,5.7726952 0 0 1 -0.183162,-0.22333 z"
           id="path5384"
           inkscape:connector-curvature="0" />
        <path
           style="opacity:1;vector-effect:none;fill:url(#linearGradient954);fill-opacity:1;stroke:none;stroke-width:0.0471269;stroke-linecap:butt;stroke-linejoin:miter;stroke-miterlimit:4;stroke-dasharray:none;stroke-dashoffset:0;stroke-opacity:1"
           d="m 67.25174,156.02161 a 5.7726952,5.7726952 0 0 0 -2.119675,2.10746 5.7726952,5.7726952 0 0 0 -0.568824,4.39381 5.7726952,5.7726952 0 0 0 2.681801,3.49185 5.7726952,5.7726952 0 0 0 1.407083,0.57885 5.7726952,5.7726952 0 0 1 0.570289,-1.37984 5.7726952,5.7726952 0 0 1 0.909283,-1.17752 5.7726952,5.7726952 0 0 0 -0.350243,-0.32166 5.7726952,5.7726952 0 0 1 0.350243,0.32166 5.7726952,5.7726952 0 0 1 0.17834,-0.16247 37.13986,37.174472 0 0 1 -3.058297,-7.85214 z m -0.97353,6.31266 a 5.7726952,5.7726952 0 0 1 0.236316,0.0214 5.7726952,5.7726952 0 0 0 -0.287003,-0.0208 5.7726952,5.7726952 0 0 1 0.05069,-5.2e-4 z m -0.339478,0.003 a 5.7726952,5.7726952 0 0 0 -0.288089,0.008 5.7726952,5.7726952 0 0 1 0.288089,-0.008 z m -0.574251,0.0393 a 5.7726952,5.7726952 0 0 0 -0.286677,0.0366 5.7726952,5.7726952 0 0 1 0.286677,-0.0366 z m 1.437839,0.005 a 5.7726952,5.7726952 0 0 1 0.283882,0.0496 5.7726952,5.7726952 0 0 0 -0.283882,-0.0496 z m 0.567281,0.10421 a 5.7726952,5.7726952 0 0 1 0.277997,0.0778 5.7726952,5.7726952 0 0 0 -0.277997,-0.0778 z m 0.55383,0.16023 a 5.7726952,5.7726952 0 0 1 0.269427,0.10538 5.7726952,5.7726952 0 0 0 -0.269427,-0.10538 z m 0.535496,0.21489 a 5.7726952,5.7726952 0 0 1 0.468458,0.23966 5.7726952,5.7726952 0 0 0 -0.468458,-0.23966 z m 0.867139,0.49968 a 5.7726952,5.7726952 0 0 1 0.230244,0.17244 5.7726952,5.7726952 0 0 0 -0.230244,-0.17244 z"
           id="path864"
           inkscape:connector-curvature="0" />
        <path
           style="opacity:1;vector-effect:none;fill:#606dbb;fill-opacity:1;stroke:#bbc2e9;stroke-width:0.52479;stroke-linecap:round;stroke-linejoin:miter;stroke-miterlimit:4;stroke-dasharray:none;stroke-dashoffset:0;stroke-opacity:1"
           d="m 69.48811,154.93362 4.94486,-0.90466"
           id="path956"
           inkscape:connector-curvature="0" />
        <path
           style="opacity:1;vector-effect:none;fill:#606dbb;fill-opacity:1;stroke:#bbc2e9;stroke-width:0.52479;stroke-linecap:round;stroke-linejoin:miter;stroke-miterlimit:4;stroke-dasharray:none;stroke-dashoffset:0;stroke-opacity:1"
           d="m 70.047066,156.96291 4.922882,-1.0175"
           id="path956-7"
           inkscape:connector-curvature="0" />
        <path
           style="opacity:1;vector-effect:none;fill:#606dbb;fill-opacity:1;stroke:#bbc2e9;stroke-width:0.52479;stroke-linecap:round;stroke-linejoin:miter;stroke-miterlimit:4;stroke-dasharray:none;stroke-dashoffset:0;stroke-opacity:1"
           d="m 70.876135,159.07872 4.877083,-1.21825"
           id="path956-7-3"
           inkscape:connector-curvature="0" />
      </g>
      <text
         xml:space="preserve"
         style="font-style:normal;font-variant:normal;font-weight:bold;font-stretch:normal;font-size:22.0606px;line-height:1.25;font-family:'Noto Sans';-inkscape-font-specification:'Noto Sans Bold';letter-spacing:0px;word-spacing:0px;fill:#000000;fill-opacity:1;stroke:none;stroke-width:0.114899"
         x="82.939964"
         y="169.8456"
         id="text2708"><tspan
           sodipodi:role="line"
           id="tspan2706"
           x="82.939964"
           y="169.8456"
           style="font-style:normal;font-variant:normal;font-weight:bold;font-stretch:normal;font-size:16.9333px;font-family:'Noto Sans';-inkscape-font-specification:'Noto Sans Bold';stroke-width:0.114899"><tspan
             style="font-style:normal;font-variant:normal;font-weight:bold;font-stretch:normal;font-size:16.9333px;font-family:'Noto Sans';-inkscape-font-specification:'Noto Sans Bold';fill:#ffffff;fill-opacity:1;stroke-width:0.114899"
             id="tspan2710">Web</tspan><tspan
             style="font-style:normal;font-variant:normal;font-weight:bold;font-stretch:normal;font-size:16.9333px;font-family:'Noto Sans';-inkscape-font-specification:'Noto Sans Bold';fill:#ff3d00;fill-opacity:1;stroke-width:0.114899"
             id="tspan2730">lab</tspan></tspan></text>
    </g>
    <g
       id="g913"
       transform="translate(0,-3.2571556)">
      <path
         sodipodi:nodetypes="cscssssssc"
         inkscape:connector-curvature="0"
         id="path1339"
         d="m -64.937146,192.92605 c 0,0 19.233901,-0.38394 29.132045,-0.76789 9.89814,-0.38395 13.722415,-1.51834 15.972004,-2.6702 13.0475541,-3.8744 23.3272438,-4.23006 34.081112,0.0873 8.679755,3.48462 34.172204,11.25124 53.540033,1.84994 13.896947,-6.74571 24.29544,-10.22704 37.905382,0.31414 13.60995,10.54117 27.99953,-4.22611 30.48177,-6.17811 4.94909,-3.89186 10.57304,-12.94961 36.55566,3.10651 25.98262,16.05609 36.10572,13.07175 42.06712,6.91109 5.96138,-6.16064 43.75429,-5.21822 43.75429,-5.21822"
         style="opacity:1;fill:none;fill-opacity:1;stroke:#ff3d00;stroke-width:0.18867035;stroke-linecap:butt;stroke-linejoin:miter;stroke-miterlimit:4;stroke-dasharray:none;stroke-opacity:1" />
      <path
         sodipodi:nodetypes="cssssscssc"
         inkscape:connector-curvature="0"
         id="path1339-3"
         d="m -60.550474,198.46874 c 0,0 19.233905,-0.28795 29.132046,-0.57591 9.898138,-0.28795 13.722414,-1.13872 15.972005,-2.0026 2.249572,-0.86386 12.3726829,-6.11247 30.256825,-0.30103 17.884142,5.81144 47.588247,13.63808 63.550648,1.12564 24.29545,-19.04444 32.95632,-13.67366 44.76662,-0.25308 7.13478,8.1076 15.18465,0.70246 20.13371,-2.53055 10.12311,-4.66406 24.52042,-11.64028 50.50303,0.40143 25.98263,12.04173 19.45884,10.74596 25.42024,6.12561 5.96136,-4.62036 43.75428,-3.91357 43.75428,-3.91357"
         style="opacity:1;fill:none;fill-opacity:1;stroke:#ff3d00;stroke-width:0.19774204;stroke-linecap:butt;stroke-linejoin:miter;stroke-miterlimit:4;stroke-dasharray:none;stroke-opacity:1" />
      <path
         sodipodi:nodetypes="cssssscscc"
         inkscape:connector-curvature="0"
         id="path1339-3-6"
         d="m -54.364133,204.63171 c 0,0 19.233903,-0.17931 29.132045,-0.35862 9.898135,-0.17931 19.5398763,0.72127 22.0458684,1.23119 7.6485553,1.55635 16.3127486,3.46967 33.1812666,-0.22236 28.274444,-6.18846 25.307835,4.93594 48.478486,-2.6848 23.170657,-7.62075 24.182977,-3.44257 37.792917,1.48036 13.60994,4.92292 25.0828,-0.23637 28.00724,-1.14108 2.92445,-0.90471 13.04755,-7.79191 39.0302,-0.29342 25.98259,7.49849 36.1057,6.10474 42.0671,3.22761 5.96136,-2.87714 43.75426,-2.437 43.75426,-2.437"
         style="opacity:1;fill:none;fill-opacity:1;stroke:#ff3d00;stroke-width:0.19774204;stroke-linecap:butt;stroke-linejoin:miter;stroke-miterlimit:4;stroke-dasharray:none;stroke-opacity:1" />
      <g
         transform="matrix(1,0,0,0.50848983,0,88.215421)"
         id="g975">
        <path
           inkscape:connector-curvature="0"
           d="m -64.679106,206.56592 c 0,0 18.772822,-0.72586 28.769554,-1.46061 0.129948,-0.01 0.258446,-0.0191 0.385438,-0.0287 8.859935,-0.66733 12.84342,-2.49839 15.193775,-4.47447 0.285936,-0.24069 0.552717,-0.4882 0.805914,-0.73916 10.7805996,-6.3423 20.00550682,-8.12452 29.621724,-2.65827 1.477677,0.83527 2.960487,1.83204 4.455685,2.99455 9.137221,7.03026 34.499371,22.00101 53.615168,3.69105 1.642034,-1.57346 3.232967,-3.07523 4.782661,-4.47311 11.741203,-10.76385 21.199956,-14.04596 32.910837,3.39794 7.61829,11.31976 15.42677,7.68341 21.28688,2.07044 4.41655,-4.20125 7.72844,-10.1433 8.95328,-11.87909 2.07816,-3.08082 4.24556,-7.85478 7.7207,-10.35096 5.32931,-3.80097 13.67472,-3.09387 29.09236,14.86914 5.51531,6.43399 10.39241,11.37552 14.74478,15.1499 16.08365,13.9471 22.66607,8.554 27.34393,-0.88254 0.24698,-0.49779 0.54681,-0.9746 0.89533,-1.43128 7.99314,-10.45106 42.9114,-8.76593 42.9114,-8.76593"
           style="opacity:1;fill:none;fill-opacity:1;stroke:#ff3d00;stroke-width:0.26458335;stroke-linecap:butt;stroke-linejoin:miter;stroke-miterlimit:4;stroke-dasharray:none;stroke-opacity:1"
           id="path943" />
        <path
           inkscape:connector-curvature="0"
           d="m -64.421067,207.20712 c 0,0 18.80164,-0.71589 28.792211,-1.44012 0.130019,-0.009 0.258613,-0.0189 0.385729,-0.0283 8.906755,-0.66233 12.875837,-2.48216 15.218033,-4.43951 0.281504,-0.2358 0.549544,-0.48291 0.80934,-0.73653 10.3189932,-6.11942 19.58149603,-8.2562 29.607622,-2.48557 1.476945,0.84162 2.963666,1.83631 4.466084,2.98653 9.594689,7.20763 34.82654,21.87523 53.690305,3.74398 1.630072,-1.56798 3.207501,-3.08355 4.740696,-4.51794 11.889364,-11.45075 21.309262,-14.87491 32.740917,1.74982 7.46883,10.8079 15.06411,7.91641 20.86735,3.34568 4.38289,-3.39704 7.74705,-8.98935 9.13119,-10.81307 2.14637,-3.05324 4.35989,-7.81708 7.75903,-10.33864 5.46586,-3.98893 13.9065,-3.90815 29.31143,13.26572 5.50076,6.14767 10.44346,11.00654 14.94233,14.92647 16.61145,14.47265 22.50489,9.35289 27.16797,0.0168 0.24801,-0.49568 0.54751,-0.97319 0.8951,-1.43311 7.86615,-10.36578 42.96408,-8.69909 42.96408,-8.69909"
           style="opacity:1;fill:none;fill-opacity:1;stroke:#ff3d00;stroke-width:0.26458335;stroke-linecap:butt;stroke-linejoin:miter;stroke-miterlimit:4;stroke-dasharray:none;stroke-opacity:1"
           id="path945" />
        <path
           inkscape:connector-curvature="0"
           d="m -64.163027,207.84831 c 0,0 18.830457,-0.70592 28.814866,-1.41961 0.130091,-0.009 0.258781,-0.0186 0.386021,-0.028 8.953575,-0.65735 12.908255,-2.46595 15.242291,-4.40456 0.277071,-0.23091 0.546372,-0.47762 0.812767,-0.73389 9.8573857,-5.89656 19.15748423,-8.38789 29.593519,-2.31287 1.476213,0.84796 2.966845,1.84057 4.476484,2.9785 10.052155,7.385 35.153707,21.74945 53.76544,3.79692 1.618111,-1.56252 3.182036,-3.09189 4.698731,-4.56278 12.037527,-12.13764 21.418569,-15.70387 32.570998,0.1017 7.31938,10.29603 14.70144,8.14941 20.44783,4.62092 4.34922,-2.59283 7.76565,-7.8354 9.3091,-9.74705 2.21457,-3.02565 4.4742,-7.77937 7.79735,-10.32632 5.60241,-4.1769 14.13829,-4.72242 29.53051,11.66229 5.4862,5.86136 10.4945,10.63758 15.13987,14.70305 17.13924,14.99821 22.34371,10.15178 26.99202,0.91621 0.24903,-0.49358 0.54819,-0.9718 0.89486,-1.43496 7.73916,-10.28049 43.01676,-8.63225 43.01676,-8.63225"
           style="opacity:1;fill:none;fill-opacity:1;stroke:#ff3d00;stroke-width:0.26458335;stroke-linecap:butt;stroke-linejoin:miter;stroke-miterlimit:4;stroke-dasharray:none;stroke-opacity:1"
           id="path947" />
        <path
           inkscape:connector-curvature="0"
           d="m -63.904988,208.48951 c 0,0 18.859275,-0.69595 28.837522,-1.39912 0.130163,-0.009 0.258948,-0.0184 0.386313,-0.0276 9.000395,-0.65236 12.940673,-2.44972 15.266549,-4.36961 0.272638,-0.22601 0.5432,-0.47232 0.816193,-0.73125 9.3957792,-5.67368 18.73347343,-8.51958 29.579417,-2.14017 1.475481,0.85431 2.970024,1.84484 4.486884,2.97048 10.509621,7.56237 35.480874,21.62367 53.840576,3.84985 1.60615,-1.55705 3.156569,-3.10021 4.656766,-4.60761 12.185689,-12.82454 21.527875,-16.53282 32.401078,-1.54642 7.16993,9.78417 14.33877,8.38241 20.02831,5.89616 4.31555,-1.78862 7.78425,-6.68145 9.487,-8.68103 2.28278,-2.99806 4.58853,-7.74166 7.83568,-10.314 5.73897,-4.36487 14.37008,-5.5367 29.74958,10.05887 5.47165,5.57504 10.54556,10.2686 15.33741,14.47962 17.66705,15.52376 22.18254,10.95066 26.81608,1.81558 0.25005,-0.49147 0.54888,-0.97039 0.89462,-1.4368 7.61218,-10.1952 43.06944,-8.5654 43.06944,-8.5654"
           style="opacity:1;fill:none;fill-opacity:1;stroke:#ff3d00;stroke-width:0.26458335;stroke-linecap:butt;stroke-linejoin:miter;stroke-miterlimit:4;stroke-dasharray:none;stroke-opacity:1"
           id="path949" />
        <path
           inkscape:connector-curvature="0"
           d="m -63.646948,209.1307 c 0,0 18.888092,-0.68597 28.860177,-1.37861 0.130235,-0.009 0.259116,-0.0181 0.386605,-0.0273 9.047215,-0.64738 12.97309,-2.4335 15.290806,-4.33466 0.268206,-0.22112 0.540028,-0.46703 0.819621,-0.72861 8.9341717,-5.45082 18.30946163,-8.65127 29.565314,-1.96747 1.474749,0.86066 2.973203,1.8491 4.497284,2.96245 10.967088,7.73974 35.808041,21.49789 53.915711,3.90279 1.594189,-1.55158 3.131104,-3.10854 4.614802,-4.65245 12.333851,-13.51144 21.637181,-17.36178 32.231158,-3.19454 7.02048,9.2723 13.97611,8.61541 19.60878,7.1714 4.28189,-0.98441 7.80286,-5.52749 9.66492,-7.61501 2.35098,-2.97048 4.70285,-7.70396 7.874,-10.30168 5.87552,-4.55284 14.60187,-6.35097 29.96866,8.45545 5.45709,5.28872 10.5966,9.89962 15.53495,14.25619 18.19484,16.04931 22.02137,11.74955 26.64012,2.71496 0.25107,-0.48937 0.54958,-0.969 0.89439,-1.43865 7.48519,-10.10991 43.12211,-8.49856 43.12211,-8.49856"
           style="opacity:1;fill:none;fill-opacity:1;stroke:#ff3d00;stroke-width:0.26458335;stroke-linecap:butt;stroke-linejoin:miter;stroke-miterlimit:4;stroke-dasharray:none;stroke-opacity:1"
           id="path951" />
        <path
           inkscape:connector-curvature="0"
           d="m -63.388909,209.77189 c 0,0 18.916911,-0.676 28.882833,-1.35811 0.130307,-0.009 0.259284,-0.0179 0.386897,-0.0269 9.094036,-0.64239 13.005508,-2.41728 15.315064,-4.2997 0.263774,-0.21623 0.536856,-0.46175 0.823048,-0.72598 8.4725642,-5.22794 17.88544984,-8.78295 29.55121,-1.79477 1.474018,0.86701 2.976383,1.85337 4.507684,2.95443 11.424555,7.91711 36.13521,21.37212 53.990848,3.95573 1.582227,-1.54612 3.105638,-3.11687 4.572837,-4.69729 12.482013,-14.19834 21.746487,-18.19073 32.061238,-4.84266 6.87103,8.76044 13.61344,8.84841 19.18926,8.44664 4.24822,-0.18021 7.82146,-4.37354 9.84283,-6.54899 2.41918,-2.94289 4.81717,-7.66625 7.91232,-10.28936 6.01207,-4.74081 14.83366,-7.16525 30.18774,6.85203 5.44253,5.0024 10.64765,9.53064 15.73249,14.03277 18.72264,16.57486 21.86019,12.54843 26.46417,3.61433 0.25209,-0.48727 0.55027,-0.96761 0.89414,-1.4405 7.35821,-10.02462 43.1748,-8.43171 43.1748,-8.43171"
           style="opacity:1;fill:none;fill-opacity:1;stroke:#ff3d00;stroke-width:0.26458335;stroke-linecap:butt;stroke-linejoin:miter;stroke-miterlimit:4;stroke-dasharray:none;stroke-opacity:1"
           id="path953" />
        <path
           inkscape:connector-curvature="0"
           d="m -63.130869,210.41309 c 0,0 18.945728,-0.66603 28.905489,-1.33761 0.130378,-0.009 0.259451,-0.0176 0.387188,-0.0266 9.140856,-0.6374 13.037926,-2.40106 15.339322,-4.26476 0.259341,-0.21132 0.533684,-0.45645 0.826474,-0.72333 8.0109578,-5.00508 17.46143904,-8.91464 29.537108,-1.62207 1.473286,0.87335 2.979563,1.85763 4.518084,2.9464 11.882022,8.09449 36.462377,21.24634 54.065983,4.00866 1.570267,-1.54065 3.080173,-3.1252 4.530873,-4.74212 12.630175,-14.88523 21.855792,-19.01969 31.891318,-6.49079 6.72157,8.24858 13.25077,9.08142 18.76974,9.72189 4.21455,0.624 7.84006,-3.21959 10.02073,-5.48297 2.48739,-2.9153 4.9315,-7.62854 7.95064,-10.27703 6.14864,-4.92878 15.06545,-7.97954 30.40682,5.2486 5.42798,4.71608 10.6987,9.16166 15.93004,13.80934 19.25043,17.10041 21.69901,13.34732 26.28822,4.5137 0.25311,-0.48517 0.55096,-0.9662 0.8939,-1.44234 7.23122,-9.93933 43.22748,-8.36487 43.22748,-8.36487"
           style="opacity:1;fill:none;fill-opacity:1;stroke:#ff3d00;stroke-width:0.26458335;stroke-linecap:butt;stroke-linejoin:miter;stroke-miterlimit:4;stroke-dasharray:none;stroke-opacity:1"
           id="path955" />
        <path
           inkscape:connector-curvature="0"
           d="m -62.87283,211.05428 c 0,0 18.974546,-0.65605 28.928145,-1.31711 0.13045,-0.009 0.259619,-0.0174 0.38748,-0.0262 9.187676,-0.63241 13.070344,-2.38483 15.363579,-4.2298 0.254909,-0.20643 0.530512,-0.45116 0.829902,-0.7207 7.5493503,-4.7822 17.03742724,-9.04632 29.523005,-1.44937 1.472554,0.8797 2.982742,1.8619 4.528484,2.93838 12.339488,8.27186 36.789544,21.12056 54.141118,4.0616 1.558306,-1.53518 3.054708,-3.13353 4.488909,-4.78696 12.778336,-15.57213 21.965098,-19.84864 31.721398,-8.13891 6.57212,7.73672 12.88811,9.31442 18.35021,10.99713 4.18088,1.42821 7.85867,-2.06564 10.19865,-4.41695 2.55559,-2.88771 5.04582,-7.59084 7.98896,-10.26471 6.28519,-5.11675 15.29724,-8.79381 30.6259,3.64517 5.41342,4.42977 10.74975,8.7927 16.12757,13.58592 19.77823,17.62596 21.53785,14.1462 26.11228,5.41308 0.25413,-0.48307 0.55164,-0.96481 0.89366,-1.44418 7.10424,-9.85404 43.28016,-8.29803 43.28016,-8.29803"
           style="opacity:1;fill:none;fill-opacity:1;stroke:#ff3d00;stroke-width:0.26458335;stroke-linecap:butt;stroke-linejoin:miter;stroke-miterlimit:4;stroke-dasharray:none;stroke-opacity:1"
           id="path957" />
        <path
           inkscape:connector-curvature="0"
           d="m -62.61479,211.69548 c 0,0 19.003363,-0.64609 28.9508,-1.29661 0.130522,-0.009 0.259787,-0.0171 0.387772,-0.0259 9.234496,-0.62743 13.102761,-2.36862 15.387837,-4.19485 0.250476,-0.20154 0.52734,-0.44587 0.833328,-0.71806 7.0877438,-4.55934 16.61341644,-9.17802 29.508903,-1.27667 1.471822,0.88605 2.985921,1.86616 4.538884,2.93035 12.796954,8.44923 37.116711,20.99478 54.216254,4.11453 1.546344,-1.52971 3.029242,-3.14185 4.446943,-4.83179 12.926499,-16.25903 22.074405,-20.67759 31.551479,-9.78703 6.42267,7.22485 12.52544,9.54742 17.93069,12.27237 4.14721,2.23242 7.87727,-0.91168 10.37655,-3.35092 2.6238,-2.86014 5.16015,-7.55314 8.02729,-10.2524 6.42174,-5.30472 15.52903,-9.60809 30.84497,2.04175 5.39887,4.14345 10.8008,8.42372 16.32512,13.36249 20.30603,18.15152 21.37667,14.94509 25.93632,6.31246 0.25516,-0.48097 0.55234,-0.96341 0.89343,-1.44603 6.97725,-9.76875 43.33284,-8.23119 43.33284,-8.23119"
           style="opacity:1;fill:none;fill-opacity:1;stroke:#ff3d00;stroke-width:0.26458335;stroke-linecap:butt;stroke-linejoin:miter;stroke-miterlimit:4;stroke-dasharray:none;stroke-opacity:1"
           id="path959" />
        <path
           inkscape:connector-curvature="0"
           d="m -62.356751,212.33667 c 0,0 19.032181,-0.63611 28.973456,-1.27611 0.130595,-0.008 0.259955,-0.0169 0.388064,-0.0255 9.281317,-0.62244 13.135179,-2.35239 15.412095,-4.1599 0.246044,-0.19664 0.524168,-0.44057 0.836755,-0.71542 6.626136,-4.33646 16.18940465,-9.3097 29.4948,-1.10397 1.47109,0.8924 2.9891,1.87043 4.549283,2.92233 13.254422,8.6266 37.44388,20.869 54.29139,4.16747 1.534384,-1.52425 3.003776,-3.15018 4.404979,-4.87663 13.074661,-16.94593 22.183711,-21.50655 31.381559,-11.43515 6.27322,6.71298 12.16277,9.78042 17.51116,13.5476 4.11355,3.03664 7.89588,0.24228 10.55447,-2.28489 2.692,-2.83255 5.27446,-7.51543 8.06561,-10.24008 6.5583,-5.49269 15.76082,-10.42236 31.06405,0.43833 5.38431,3.85713 10.85185,8.05474 16.52266,13.13907 20.83382,18.67706 21.21549,15.74397 25.76037,7.21182 0.25617,-0.47886 0.55303,-0.96201 0.89319,-1.44787 6.85026,-9.68346 43.38552,-8.16434 43.38552,-8.16434"
           style="opacity:1;fill:none;fill-opacity:1;stroke:#ff3d00;stroke-width:0.26458335;stroke-linecap:butt;stroke-linejoin:miter;stroke-miterlimit:4;stroke-dasharray:none;stroke-opacity:1"
           id="path961" />
        <path
           inkscape:connector-curvature="0"
           d="m -62.098711,212.97787 c 0,0 19.060999,-0.62614 28.996112,-1.25561 0.130666,-0.008 0.260122,-0.0167 0.388355,-0.0252 9.328137,-0.61746 13.167597,-2.33617 15.436353,-4.12495 0.241611,-0.19175 0.520995,-0.43529 0.840181,-0.71278 6.16453,-4.1136 15.76539385,-9.44139 29.480698,-0.93127 1.470359,0.89874 2.992279,1.87469 4.559683,2.9143 13.711888,8.80397 37.771047,20.74322 54.366526,4.22041 1.522422,-1.51878 2.97831,-3.15851 4.363014,-4.92147 13.222823,-17.63282 22.293017,-22.3355 31.211639,-13.08327 6.12376,6.20112 11.80011,10.01342 17.09164,14.82284 4.07988,3.84085 7.91448,1.39623 10.73238,-1.21887 2.7602,-2.80496 5.38878,-7.47773 8.10393,-10.22776 6.69485,-5.68066 15.99261,-11.23664 31.28313,-1.16509 5.36975,3.57081 10.90289,7.68576 16.7202,12.91564 21.36162,19.20261 21.05432,16.54286 25.58442,8.1112 0.25719,-0.47676 0.55372,-0.96061 0.89295,-1.44972 6.72327,-9.59817 43.4382,-8.0975 43.4382,-8.0975"
           style="opacity:1;fill:none;fill-opacity:1;stroke:#ff3d00;stroke-width:0.26458335;stroke-linecap:butt;stroke-linejoin:miter;stroke-miterlimit:4;stroke-dasharray:none;stroke-opacity:1"
           id="path963" />
        <path
           inkscape:connector-curvature="0"
           d="m -61.840672,213.61906 c 0,0 19.089817,-0.61616 29.018768,-1.23511 0.130738,-0.008 0.26029,-0.0164 0.388647,-0.0248 9.374957,-0.61246 13.200014,-2.31995 15.46061,-4.08999 0.237179,-0.18686 0.517824,-0.43 0.843609,-0.71015 5.702922,-3.89072 15.34138205,-9.57307 29.466595,-0.75857 1.469627,0.90509 2.995458,1.87896 4.570083,2.90628 14.169354,8.98134 38.098214,20.61744 54.441661,4.27334 1.510461,-1.51331 2.952845,-3.16684 4.32105,-4.9663 13.370985,-18.31972 22.402323,-23.16446 31.041719,-14.73139 5.97431,5.68925 11.43744,10.24642 16.67212,16.09808 4.04621,4.64506 7.93308,2.55019 10.91028,-0.15285 2.82841,-2.77738 5.50311,-7.44002 8.14226,-10.21544 6.83141,-5.86862 16.2244,-12.05091 31.5022,-2.76851 5.3552,3.28449 10.95394,7.31678 16.91774,12.69221 21.88942,19.72817 20.89315,17.34174 25.40847,9.01057 0.25822,-0.47465 0.55442,-0.95921 0.89272,-1.45156 6.59629,-9.51288 43.49088,-8.03065 43.49088,-8.03065"
           style="opacity:1;fill:none;fill-opacity:1;stroke:#ff3d00;stroke-width:0.26458335;stroke-linecap:butt;stroke-linejoin:miter;stroke-miterlimit:4;stroke-dasharray:none;stroke-opacity:1"
           id="path965" />
        <path
           inkscape:connector-curvature="0"
           d="m -61.582632,214.26025 c 0,0 19.118634,-0.60619 29.041423,-1.2146 0.13081,-0.008 0.260458,-0.0162 0.388939,-0.0245 9.421777,-0.60748 13.232432,-2.30373 15.484868,-4.05505 0.232746,-0.18196 0.514652,-0.4247 0.847036,-0.7075 5.241315,-3.66786 14.91737025,-9.70476 29.452492,-0.58587 1.468895,0.91143 2.998637,1.88322 4.580483,2.89825 14.626821,9.15871 38.425381,20.49166 54.516796,4.32628 1.498501,-1.50785 2.92738,-3.17517 4.279086,-5.01114 13.519147,-19.00662 22.511628,-23.99341 30.871799,-16.37951 5.82486,5.17739 11.07477,10.47942 16.25259,17.37332 4.01255,5.44927 7.95168,3.70414 11.0882,0.91317 2.89661,-2.74979 5.61743,-7.40232 8.18058,-10.20312 6.96796,-6.05659 16.45618,-12.86519 31.72128,-4.37194 5.34064,2.99818 11.00499,6.94782 17.11528,12.46879 22.41722,20.25372 20.73197,18.14063 25.23252,9.90995 0.25924,-0.47255 0.5551,-0.95782 0.89248,-1.45341 6.4693,-9.42759 43.54355,-7.96381 43.54355,-7.96381"
           style="opacity:1;fill:none;fill-opacity:1;stroke:#ff3d00;stroke-width:0.26458335;stroke-linecap:butt;stroke-linejoin:miter;stroke-miterlimit:4;stroke-dasharray:none;stroke-opacity:1"
           id="path967" />
        <path
           inkscape:connector-curvature="0"
           d="m -61.324593,214.90145 c 0,0 19.147452,-0.59622 29.064079,-1.19411 0.130882,-0.008 0.260626,-0.0159 0.389231,-0.0241 9.468597,-0.60249 13.26485,-2.2875 15.509126,-4.02009 0.228314,-0.17706 0.511479,-0.41941 0.850462,-0.70487 4.779708,-3.44498 14.4933595,-9.83645 29.43839,-0.41317 1.468163,0.91779 3.001816,1.88749 4.590882,2.89022 15.084288,9.33609 38.75255,20.36589 54.591933,4.37922 1.486539,-1.50237 2.901914,-3.18349 4.237121,-5.05597 13.667309,-19.69351 22.620934,-24.82237 30.701879,-18.02763 5.67541,4.66552 10.71211,10.71242 15.83307,18.64856 3.97888,6.25348 7.97028,4.85809 11.2661,1.97919 2.96482,-2.7222 5.73176,-7.36461 8.21891,-10.19079 7.10451,-6.24457 16.68797,-13.67947 31.94035,-5.97537 5.32609,2.71186 11.05604,6.57884 17.31283,12.24536 22.94501,20.77927 20.5708,18.93952 25.05657,10.80933 0.26026,-0.47046 0.55579,-0.95642 0.89223,-1.45525 6.34232,-9.3423 43.59624,-7.89697 43.59624,-7.89697"
           style="opacity:1;fill:none;fill-opacity:1;stroke:#ff3d00;stroke-width:0.26458335;stroke-linecap:butt;stroke-linejoin:miter;stroke-miterlimit:4;stroke-dasharray:none;stroke-opacity:1"
           id="path969" />
        <path
           inkscape:connector-curvature="0"
           d="m -61.066553,215.54264 c 0,0 19.17627,-0.58624 29.086735,-1.1736 0.130953,-0.008 0.260793,-0.0157 0.389522,-0.0238 9.515418,-0.59751 13.297268,-2.27128 15.533384,-3.98514 0.223881,-0.17217 0.508307,-0.41412 0.853889,-0.70223 4.318101,-3.22212 14.0693477,-9.96814 29.424287,-0.24047 1.467431,0.92413 3.004995,1.89175 4.601282,2.88219 15.541755,9.51346 39.079717,20.24011 54.667068,4.43216 1.474578,-1.49691 2.876449,-3.19182 4.195156,-5.10081 13.815471,-20.38041 22.73024,-25.65132 30.53197,-19.67575 5.52595,4.15366 10.34943,10.94541 15.41354,19.9238 3.94521,7.05769 7.98888,6.01204 11.44401,3.04521 3.03302,-2.69462 5.84608,-7.3269 8.25723,-10.17847 7.24107,-6.43254 16.91976,-14.49375 32.15943,-7.57879 5.31153,2.42554 11.10709,6.20986 17.51037,12.02194 23.4728,21.30482 20.40962,19.7384 24.88061,11.70869 0.26128,-0.46835 0.55649,-0.95502 0.892,-1.45709 6.21533,-9.25701 43.64892,-7.83013 43.64892,-7.83013"
           style="opacity:1;fill:none;fill-opacity:1;stroke:#ff3d00;stroke-width:0.26458335;stroke-linecap:butt;stroke-linejoin:miter;stroke-miterlimit:4;stroke-dasharray:none;stroke-opacity:1"
           id="path971" />
        <path
           inkscape:connector-curvature="0"
           d="m -60.808514,216.18384 c 0,0 19.205088,-0.57628 29.109391,-1.15311 0.131025,-0.008 0.260961,-0.0154 0.389814,-0.0234 9.562238,-0.59252 13.329685,-2.25506 15.557641,-3.95019 0.219449,-0.16727 0.505136,-0.40883 0.857316,-0.69959 3.856494,-2.99924 13.6453369,-10.09982 29.410185,-0.0678 1.466699,0.93048 3.008175,1.89602 4.611682,2.87417 15.999221,9.69083 39.406884,20.11433 54.742204,4.4851 1.462617,-1.49145 2.850983,-3.20015 4.153191,-5.14565 13.963633,-21.06731 22.83955,-26.48028 30.36205,-21.32387 5.37649,3.64179 9.98676,11.17841 14.99401,21.19904 3.91155,7.8619 8.00749,7.166 11.62193,4.11123 3.10122,-2.66703 5.9604,-7.2892 8.29555,-10.16615 7.37762,-6.62051 17.15155,-15.30802 32.37851,-9.18221 5.29697,2.13922 11.15813,5.84088 17.7079,11.79851 24.00061,21.83037 20.24845,20.53729 24.70467,12.60807 0.2623,-0.46625 0.55718,-0.95362 0.89176,-1.45894 6.08835,-9.17172 43.7016,-7.76328 43.7016,-7.76328"
           style="opacity:1;fill:none;fill-opacity:1;stroke:#ff3d00;stroke-width:0.26458335;stroke-linecap:butt;stroke-linejoin:miter;stroke-miterlimit:4;stroke-dasharray:none;stroke-opacity:1"
           id="path973" />
      </g>
      <g
         transform="matrix(1,0,0,0.50848983,0,88.215421)"
         id="g1009">
        <path
           inkscape:connector-curvature="0"
           d="m -60.186572,217.53798 c 0,0 19.010307,-0.54963 28.933953,-1.101 1.369974,-0.0765 2.624694,-0.17323 3.773741,-0.28749 6.949038,-0.69998 10.099737,-2.04619 12.124361,-3.40124 1.46665,-0.84809 5.110733,-4.13027 10.8277974,-5.12874 4.8918224,-0.732 11.2969258,0.0931 19.3132186,4.9061 4.648768,2.79166 10.099624,5.78437 15.945391,8.20816 17.101715,6.62264 35.183735,11.19861 47.449186,-6.56477 0.80067,-1.17637 1.589043,-2.30975 2.366099,-3.40164 18.20241,-25.72179 26.763395,-24.01284 35.731545,-9.86612 2.38992,3.72005 4.7434,8.14692 7.18742,13.10007 4.86785,9.85522 9.9963,7.01487 14.19757,2.33978 2.19318,-2.43711 4.25942,-5.53423 6.07666,-7.69372 7.63464,-6.77387 17.85214,-15.96482 33.84145,-9.40656 5.00374,2.06362 10.4714,5.50908 16.5022,10.8649 20.77164,18.47578 20.81132,20.1033 23.28255,15.26853 0.54856,-1.08866 1.26311,-2.50205 2.4061,-4.12227 6.28006,-8.76059 43.53016,-7.41388 43.53016,-7.41388"
           style="opacity:1;fill:none;fill-opacity:1;stroke:#ff3d00;stroke-width:0.27730513;stroke-linecap:butt;stroke-linejoin:miter;stroke-miterlimit:4;stroke-dasharray:none;stroke-opacity:1"
           id="path977" />
        <path
           inkscape:connector-curvature="0"
           d="m -59.822669,218.25093 c 0,0 18.786709,-0.53296 28.735858,-1.0694 1.359502,-0.074 2.606634,-0.16697 3.748357,-0.27639 6.762985,-0.66508 9.962446,-1.91462 12.075843,-3.16275 1.696201,-0.76193 5.3661542,-3.78423 10.8196727,-4.68278 4.88896909,-0.56504 11.2221226,0.3473 19.2055333,4.82953 4.62893,2.59984 10.056553,5.33172 15.923243,7.43776 17.714909,5.48471 34.57982,10.97864 47.315265,-6.36468 0.81319,-1.13776 1.61824,-2.24007 2.41647,-3.30882 18.512925,-25.05087 26.602117,-22.93518 35.860387,-9.06754 2.52298,3.68846 4.99707,7.90294 7.52666,12.53869 5.04304,9.22353 10.21144,6.25309 14.27222,1.79592 2.12683,-2.32782 4.20202,-5.38451 6.14253,-7.52721 7.53267,-6.53774 17.73458,-15.25375 33.72008,-8.54036 5.07408,2.15206 10.52795,5.53877 16.46417,10.66759 20.388,17.66998 20.86176,19.03202 23.46322,14.22921 0.56294,-1.06682 1.31544,-2.4311 2.49384,-3.98337 6.59877,-8.43474 43.30605,-7.13131 43.30605,-7.13131"
           style="opacity:1;fill:none;fill-opacity:1;stroke:#ff3d00;stroke-width:0.27730513;stroke-linecap:butt;stroke-linejoin:miter;stroke-miterlimit:4;stroke-dasharray:none;stroke-opacity:1"
           id="path979" />
        <path
           inkscape:connector-curvature="0"
           d="m -59.458767,218.96388 c 0,0 18.563111,-0.5163 28.537765,-1.0378 1.349029,-0.0715 2.588573,-0.16071 3.722973,-0.26529 6.576931,-0.63017 9.825154,-1.78304 12.027324,-2.92426 1.925752,-0.67576 5.6215759,-3.4382 10.8115479,-4.23681 4.88611588,-0.39809 11.1473195,0.6015 19.0978491,4.75294 4.60909,2.40803 10.013481,4.87909 15.901093,6.66737 18.328105,4.34679 33.975906,10.75866 47.181344,-6.16459 0.825711,-1.09916 1.647439,-2.17039 2.466841,-3.21601 18.823441,-24.37994 26.44084,-21.85751 35.98922,-8.26894 2.65604,3.65686 5.25075,7.65895 7.8659,11.97731 5.21823,8.59183 10.42658,5.49131 14.34687,1.25205 2.06049,-2.21853 4.14464,-5.23479 6.2084,-7.36071 7.43071,-6.30159 17.61703,-14.54267 33.59872,-7.67416 5.14443,2.24051 10.58449,5.56847 16.42615,10.47028 20.00434,16.86419 20.91218,17.96075 23.64389,13.1899 0.57732,-1.04497 1.36777,-2.36015 2.58158,-3.84446 6.91747,-8.10891 43.08193,-6.84876 43.08193,-6.84876"
           style="opacity:1;fill:none;fill-opacity:1;stroke:#ff3d00;stroke-width:0.27730513;stroke-linecap:butt;stroke-linejoin:miter;stroke-miterlimit:4;stroke-dasharray:none;stroke-opacity:1"
           id="path981" />
        <path
           inkscape:connector-curvature="0"
           d="m -59.094864,219.67683 c 0,0 18.339512,-0.49963 28.339671,-1.0062 1.338556,-0.069 2.570513,-0.15446 3.697588,-0.25419 6.390878,-0.59527 9.687863,-1.65147 11.978806,-2.68577 2.155302,-0.5896 5.8769976,-3.09216 10.8034232,-3.79085 4.88326256,-0.23113 11.0725162,0.85571 18.9901648,4.67636 4.58925,2.21622 9.970409,4.42646 15.878943,5.89698 18.9413,3.20886 33.371993,10.53868 47.047424,-5.96449 0.838232,-1.06056 1.676636,-2.10072 2.517211,-3.1232 19.133957,-23.70902 26.279563,-20.77985 36.118053,-7.47036 2.78911,3.62527 5.50444,7.41497 8.20515,11.41593 5.39342,7.96014 10.64171,4.72953 14.42151,0.70818 1.99415,-2.10924 4.08726,-5.08506 6.27428,-7.19419 7.32874,-6.06546 17.49947,-13.8316 33.47735,-6.80797 5.21478,2.32895 10.64103,5.59818 16.38812,10.27297 19.6207,16.0584 20.96261,16.88948 23.82457,12.15059 0.5917,-1.02312 1.42009,-2.2892 2.66932,-3.70555 7.23617,-7.78307 42.85781,-6.5662 42.85781,-6.5662"
           style="opacity:1;fill:none;fill-opacity:1;stroke:#ff3d00;stroke-width:0.27730513;stroke-linecap:butt;stroke-linejoin:miter;stroke-miterlimit:4;stroke-dasharray:none;stroke-opacity:1"
           id="path983" />
        <path
           inkscape:connector-curvature="0"
           d="m -58.730962,220.38978 c 0,0 18.115914,-0.48296 28.141578,-0.9746 1.328083,-0.0664 2.552452,-0.1482 3.672204,-0.24308 6.204824,-0.56037 9.550571,-1.51991 11.930287,-2.44729 2.384853,-0.50343 6.1324193,-2.74613 10.7952984,-3.34489 4.88040935,-0.0642 10.9977131,1.10992 18.8824806,4.59978 4.569411,2.02441 9.927337,3.97383 15.856793,5.12659 19.554496,2.07094 32.768079,10.3187 46.913503,-5.7644 0.850753,-1.02195 1.705835,-2.03104 2.567583,-3.03039 19.444472,-23.03809 26.118295,-19.70218 36.246885,-6.67177 2.92218,3.59368 5.75812,7.17099 8.54439,10.85455 5.56862,7.32845 10.85686,3.96776 14.49617,0.16432 1.92779,-1.99995 4.02987,-4.93534 6.34014,-7.02769 7.22678,-5.82932 17.38192,-13.12052 33.35599,-5.94177 5.28513,2.4174 10.69757,5.62788 16.3501,10.07567 19.23705,15.2526 21.01304,15.81819 24.00523,11.11126 0.60608,-1.00126 1.47242,-2.21824 2.75707,-3.56663 7.55487,-7.45723 42.6337,-6.28364 42.6337,-6.28364"
           style="opacity:1;fill:none;fill-opacity:1;stroke:#ff3d00;stroke-width:0.27730513;stroke-linecap:butt;stroke-linejoin:miter;stroke-miterlimit:4;stroke-dasharray:none;stroke-opacity:1"
           id="path985" />
        <path
           inkscape:connector-curvature="0"
           d="m -58.36706,221.10273 c 0,0 17.892317,-0.46629 27.943484,-0.943 1.317611,-0.0639 2.534393,-0.14194 3.64682,-0.23198 6.018771,-0.52547 9.413279,-1.38833 11.881769,-2.2088 2.614403,-0.41727 6.3878409,-2.40009 10.7871737,-2.89892 4.87755604,0.10278 10.9229099,1.36413 18.7747953,4.5232 4.549572,1.83259 9.884266,3.52118 15.834645,4.3562 20.167691,0.933 32.164164,10.09871 46.779581,-5.56432 0.863274,-0.98334 1.735033,-1.96136 2.617954,-2.93757 19.754987,-22.36718 25.957018,-18.62451 36.375728,-5.87319 3.05523,3.56209 6.01179,6.92701 8.88363,10.29317 5.74381,6.69676 11.07199,3.20598 14.57081,-0.37954 1.86145,-1.89066 3.97248,-4.78562 6.40602,-6.86118 7.12481,-5.59318 17.26436,-12.40945 33.23462,-5.07558 5.35548,2.50584 10.75411,5.65758 16.31207,9.87836 18.85341,14.44681 21.06347,14.74692 24.18591,10.07195 0.62046,-0.97941 1.52475,-2.14729 2.8448,-3.42773 7.87358,-7.13138 42.40959,-6.00107 42.40959,-6.00107"
           style="opacity:1;fill:none;fill-opacity:1;stroke:#ff3d00;stroke-width:0.27730513;stroke-linecap:butt;stroke-linejoin:miter;stroke-miterlimit:4;stroke-dasharray:none;stroke-opacity:1"
           id="path987" />
        <path
           inkscape:connector-curvature="0"
           d="m -58.003157,221.81568 c 0,0 17.668718,-0.44963 27.74539,-0.9114 1.307138,-0.0614 2.516332,-0.13569 3.621435,-0.22088 5.832718,-0.49056 9.275988,-1.25676 11.833251,-1.97031 2.843954,-0.3311 6.6432626,-2.05406 10.7790489,-2.45296 4.87470283,0.26974 10.8481067,1.61834 18.6671111,4.44662 4.529732,1.64078 9.841194,3.06855 15.812495,3.58581 20.780886,-0.20492 31.56025,9.87874 46.645661,-5.36423 0.875794,-0.94473 1.764231,-1.89168 2.668325,-2.84476 20.065502,-21.69625 25.79574,-17.54684 36.50456,-5.07459 3.1883,3.53049 6.26547,6.68302 9.22287,9.73179 5.919,6.06506 11.28713,2.4442 14.64547,-0.92341 1.7951,-1.78137 3.91509,-4.6359 6.47188,-6.69468 7.02285,-5.35704 17.14681,-11.69837 33.11325,-4.20938 5.42583,2.59429 10.81066,5.68728 16.27406,9.68105 18.46976,13.64102 21.1139,13.67565 24.36657,9.03264 0.63485,-0.95756 1.57708,-2.07634 2.93255,-3.28882 8.19228,-6.80555 42.18547,-5.71852 42.18547,-5.71852"
           style="opacity:1;fill:none;fill-opacity:1;stroke:#ff3d00;stroke-width:0.27730513;stroke-linecap:butt;stroke-linejoin:miter;stroke-miterlimit:4;stroke-dasharray:none;stroke-opacity:1"
           id="path989" />
        <path
           inkscape:connector-curvature="0"
           d="m -57.639255,222.52863 c 0,0 17.44512,-0.43296 27.547297,-0.8798 1.296665,-0.0589 2.498272,-0.12943 3.596051,-0.20978 5.646663,-0.45566 9.138696,-1.12518 11.784732,-1.73181 3.073505,-0.24495 6.8986843,-1.70803 10.7709242,-2.00701 4.87184951,0.4367 10.7733035,1.87255 18.5594268,4.37004 4.509893,1.44897 9.798122,2.61592 15.790345,2.81542 21.394082,-1.34285 30.956336,9.65876 46.51174,-5.16414 0.888315,-0.90612 1.793429,-1.822 2.718696,-2.75194 20.376013,-21.02533 25.634463,-16.46918 36.633393,-4.27601 3.32136,3.4989 6.51915,6.43904 9.56212,9.17041 6.09419,5.43337 11.50227,1.68242 14.72011,-1.46727 1.72876,-1.67209 3.85771,-4.48618 6.53775,-6.52817 6.92089,-5.12091 17.02926,-10.9873 32.99189,-3.34319 5.49618,2.68273 10.8672,5.71699 16.23603,9.48374 18.08611,12.83523 21.16433,12.60438 24.54725,7.99332 0.64922,-0.9357 1.6294,-2.00538 3.02029,-3.1499 8.51098,-6.47971 41.96135,-5.43596 41.96135,-5.43596"
           style="opacity:1;fill:none;fill-opacity:1;stroke:#ff3d00;stroke-width:0.27730513;stroke-linecap:butt;stroke-linejoin:miter;stroke-miterlimit:4;stroke-dasharray:none;stroke-opacity:1"
           id="path991" />
        <path
           inkscape:connector-curvature="0"
           d="m -57.275352,223.24157 c 0,0 17.221522,-0.41628 27.349202,-0.84819 1.286193,-0.0564 2.480212,-0.12317 3.570667,-0.19868 5.46061,-0.42076 9.001405,-0.99361 11.736214,-1.49332 3.303055,-0.15879 7.154106,-1.362 10.7627994,-1.56105 4.8689963,0.60365 10.6985004,2.12676 18.4517426,4.29346 4.490053,1.25716 9.75505,2.16328 15.768196,2.04503 22.007276,-2.48077 30.352422,9.43878 46.377819,-4.96405 0.900836,-0.86752 1.822626,-1.75232 2.769066,-2.65913 20.686536,-20.3544 25.473186,-15.39151 36.762236,-3.47742 3.45442,3.4673 6.77282,6.19506 9.90135,8.60903 6.26939,4.80167 11.71741,0.92065 14.79476,-2.01113 1.66242,-1.5628 3.80033,-4.33646 6.60363,-6.36167 6.81892,-4.88476 16.9117,-10.27622 32.87052,-2.47699 5.56653,2.77118 10.92374,5.74669 16.19801,9.28644 17.70246,12.02943 21.21476,11.5331 24.72792,6.954 0.6636,-0.91386 1.68173,-1.93443 3.10803,-3.01099 8.82968,-6.15387 41.73723,-5.1534 41.73723,-5.1534"
           style="opacity:1;fill:none;fill-opacity:1;stroke:#ff3d00;stroke-width:0.27730513;stroke-linecap:butt;stroke-linejoin:miter;stroke-miterlimit:4;stroke-dasharray:none;stroke-opacity:1"
           id="path993" />
        <path
           inkscape:connector-curvature="0"
           d="m -56.91145,223.95452 c 0,0 16.997924,-0.39961 27.151109,-0.81659 1.27572,-0.0539 2.462152,-0.11692 3.545282,-0.18758 5.274557,-0.38585 8.864114,-0.86203 11.687696,-1.25483 3.532606,-0.0726 7.4095276,-1.01596 10.7546747,-1.11508 4.866143,0.7706 10.6236971,2.38096 18.3440573,4.21688 4.470214,1.06534 9.711979,1.71064 15.746047,1.27463 22.620472,-3.6187 29.748508,9.2188 46.243898,-4.76396 0.913357,-0.82891 1.851825,-1.68264 2.819438,-2.56631 20.997048,-19.68348 25.311908,-14.31385 36.891068,-2.67883 3.58748,3.4357 7.0265,5.95106 10.24059,8.04764 6.44459,4.16998 11.93255,0.15887 14.86942,-2.55499 1.59607,-1.45351 3.74293,-4.18674 6.66949,-6.19516 6.71696,-4.64863 16.79415,-9.56515 32.74916,-1.6108 5.63688,2.85962 10.98028,5.77639 16.15998,9.08913 17.31882,11.22364 21.26519,10.46182 24.90859,5.91469 0.67799,-0.89201 1.73406,-1.86347 3.19577,-2.87209 9.14839,-5.82802 41.51312,-4.87083 41.51312,-4.87083"
           style="opacity:1;fill:none;fill-opacity:1;stroke:#ff3d00;stroke-width:0.27730513;stroke-linecap:butt;stroke-linejoin:miter;stroke-miterlimit:4;stroke-dasharray:none;stroke-opacity:1"
           id="path995" />
        <path
           inkscape:connector-curvature="0"
           d="m -56.547547,224.66747 c 0,0 16.774325,-0.38295 26.953015,-0.78499 1.265247,-0.0514 2.444091,-0.11066 3.519898,-0.17648 5.088503,-0.35095 8.726822,-0.73046 11.639177,-1.01634 3.762156,0.0135 7.6649493,-0.66993 10.7465499,-0.66912 4.8632898,0.93756 10.548894,2.63518 18.2363731,4.1403 4.450374,0.87353 9.668907,1.25801 15.723897,0.50424 23.233668,-4.75662 29.144594,8.99882 46.109977,-4.56386 0.925878,-0.79031 1.881023,-1.61297 2.869809,-2.47351 21.307561,-19.01255 25.150631,-13.23618 37.019901,-1.88024 3.72055,3.40411 7.28018,5.70708 10.57984,7.48627 6.61977,3.53828 12.14769,-0.60291 14.94406,-3.09886 1.52972,-1.34422 3.68555,-4.03702 6.73537,-6.02866 6.61499,-4.41249 16.6766,-8.85407 32.62779,-0.7446 5.70723,2.94807 11.03682,5.80609 16.12196,8.89182 16.93517,10.41785 21.31561,9.39055 25.08926,4.87538 0.69236,-0.87016 1.78638,-1.79252 3.28351,-2.73318 9.46709,-5.50219 41.289,-4.58828 41.289,-4.58828"
           style="opacity:1;fill:none;fill-opacity:1;stroke:#ff3d00;stroke-width:0.27730513;stroke-linecap:butt;stroke-linejoin:miter;stroke-miterlimit:4;stroke-dasharray:none;stroke-opacity:1"
           id="path997" />
        <path
           inkscape:connector-curvature="0"
           d="m -56.183645,225.38042 c 0,0 16.550727,-0.36628 26.754922,-0.75339 1.254773,-0.0489 2.426031,-0.1044 3.494513,-0.16538 4.90245,-0.31604 8.589531,-0.59889 11.590659,-0.77785 3.991707,0.0997 7.920371,-0.32389 10.7384252,-0.22316 4.8604365,1.10452 10.4740908,2.88939 18.1286888,4.06372 4.430535,0.68172 9.625835,0.80538 15.701748,-0.26615 23.846862,-5.89455 28.540679,8.77885 45.976056,-4.36377 0.938398,-0.7517 1.910221,-1.54329 2.920179,-2.38069 21.618084,-18.34163 24.989354,-12.15852 37.148744,-1.08166 3.85361,3.37252 7.53385,5.4631 10.91907,6.92489 6.79497,2.90659 12.36283,-1.36469 15.01871,-3.64272 1.46338,-1.23493 3.62817,-3.8873 6.80124,-5.86215 6.51303,-4.17635 16.55905,-8.143 32.50643,0.1216 5.77758,3.03651 11.09336,5.83579 16.08393,8.69451 16.55153,9.61205 21.36605,8.31927 25.26994,3.83605 0.70674,-0.8483 1.83871,-1.72156 3.37125,-2.59426 9.78579,-5.17635 41.06488,-4.30572 41.06488,-4.30572"
           style="opacity:1;fill:none;fill-opacity:1;stroke:#ff3d00;stroke-width:0.27730513;stroke-linecap:butt;stroke-linejoin:miter;stroke-miterlimit:4;stroke-dasharray:none;stroke-opacity:1"
           id="path999" />
        <path
           inkscape:connector-curvature="0"
           d="m -55.819743,226.09337 c 0,0 16.32713,-0.34961 26.556828,-0.72179 1.244301,-0.0464 2.407971,-0.0982 3.46913,-0.15428 4.716396,-0.28114 8.452239,-0.46731 11.54214,-0.53936 4.221258,0.18587 8.1757927,0.0221 10.7303004,0.22281 4.8575833,1.27147 10.3992876,3.14359 18.0210046,3.98713 4.410695,0.48991 9.582763,0.35274 15.679598,-1.03654 24.460058,-7.03247 27.936765,8.55887 45.842135,-4.16368 0.950919,-0.71309 1.939419,-1.47361 2.970551,-2.28788 21.928596,-17.6707 24.828086,-11.08085 37.277576,-0.28306 3.98667,3.34092 7.78753,5.21911 11.25832,6.3635 6.97016,2.2749 12.57796,-2.12647 15.09336,-4.18659 1.39703,-1.12564 3.57078,-3.73757 6.8671,-5.69564 6.41106,-3.94021 16.4415,-7.43192 32.38507,0.9878 5.84792,3.12495 11.1499,5.86549 16.04591,8.4972 16.16787,8.80626 21.41647,7.248 25.4506,2.79674 0.72113,-0.82645 1.89104,-1.65061 3.459,-2.45536 10.10449,-4.8505 40.84077,-4.02315 40.84077,-4.02315"
           style="opacity:1;fill:none;fill-opacity:1;stroke:#ff3d00;stroke-width:0.27730513;stroke-linecap:butt;stroke-linejoin:miter;stroke-miterlimit:4;stroke-dasharray:none;stroke-opacity:1"
           id="path1001" />
        <path
           inkscape:connector-curvature="0"
           d="m -55.45584,226.80632 c 0,0 16.103531,-0.33294 26.358734,-0.69018 1.233828,-0.0439 2.389911,-0.0919 3.443745,-0.14319 4.530343,-0.24623 8.314948,-0.33574 11.493622,-0.30087 4.4508081,0.27204 8.4312143,0.36818 10.7221757,0.66877 4.8547299,1.43843 10.3244844,3.3978 17.9133193,3.91056 4.390856,0.29809 9.539692,-0.0999 15.657449,-1.80693 25.073253,-8.17041 27.332852,8.33888 45.708214,-3.9636 0.963441,-0.67448 1.968618,-1.40393 3.020922,-2.19506 22.239109,-16.99979 24.666809,-10.00318 37.406409,0.51552 4.11974,3.30933 8.04122,4.97513 11.59756,5.80212 7.14536,1.64321 12.79311,-2.88824 15.16801,-4.73045 1.33069,-1.01635 3.51339,-3.58786 6.93298,-5.52913 6.30909,-3.70407 16.32394,-6.72085 32.2637,1.85399 5.91827,3.2134 11.20644,5.89519 16.00788,8.29989 15.78423,8.00047 21.46691,6.17672 25.63128,1.75743 0.7355,-0.8046 1.94337,-1.57966 3.54673,-2.31645 10.4232,-4.52466 40.61666,-3.74059 40.61666,-3.74059"
           style="opacity:1;fill:none;fill-opacity:1;stroke:#ff3d00;stroke-width:0.27730513;stroke-linecap:butt;stroke-linejoin:miter;stroke-miterlimit:4;stroke-dasharray:none;stroke-opacity:1"
           id="path1003" />
        <path
           inkscape:connector-curvature="0"
           d="m -55.091938,227.51927 c 0,0 15.879933,-0.31628 26.160641,-0.65858 1.223355,-0.0414 2.37185,-0.0856 3.41836,-0.13209 4.34429,-0.21133 8.177657,-0.20416 11.445104,-0.0624 4.6803587,0.3582 8.686636,0.71421 10.7140509,1.11473 4.8518767,1.60539 10.2496813,3.65201 17.8056351,3.83398 4.371017,0.10628 9.49662,-0.55253 15.635299,-2.57732 25.686449,-9.30833 26.728938,8.1189 45.574294,-3.76351 0.975961,-0.63588 1.997815,-1.33425 3.071292,-2.10225 22.549622,-16.32886 24.505532,-8.92551 37.535242,1.31411 4.2528,3.27774 8.2949,4.73115 11.93681,5.24075 7.32054,1.01151 13.00824,-3.65003 15.24265,-5.27432 1.26435,-0.90706 3.45601,-3.43814 6.99885,-5.36263 6.20713,-3.46793 16.20639,-6.00977 32.14234,2.72019 5.98862,3.30184 11.26298,5.92489 15.96986,8.10259 15.40058,7.19467 21.51733,5.10544 25.81195,0.71811 0.74988,-0.78276 1.99569,-1.50871 3.63447,-2.17754 10.7419,-4.19883 40.39254,-3.45804 40.39254,-3.45804"
           style="opacity:1;fill:none;fill-opacity:1;stroke:#ff3d00;stroke-width:0.27730513;stroke-linecap:butt;stroke-linejoin:miter;stroke-miterlimit:4;stroke-dasharray:none;stroke-opacity:1"
           id="path1005" />
        <path
           inkscape:connector-curvature="0"
           d="m -54.728035,228.23222 c 0,0 15.656335,-0.29961 25.962546,-0.62698 1.212883,-0.0389 2.353791,-0.0794 3.392977,-0.12099 4.158236,-0.17642 8.040365,-0.0726 11.396585,0.17611 4.9099093,0.44437 8.9420577,1.06025 10.7059262,1.5607 4.8490234,1.77234 10.174878,3.90622 17.6979508,3.75739 4.351177,-0.0855 9.453548,-1.00516 15.61315,-3.34771 26.299643,-10.44626 26.125023,7.89893 45.440372,-3.56342 0.988482,-0.59727 2.027014,-1.26457 3.121664,-2.00943 22.860144,-15.65794 24.344254,-7.84785 37.664084,2.1127 4.38586,3.24614 8.54857,4.48716 12.27604,4.67936 7.49574,0.37982 13.22338,-4.4118 15.31731,-5.81818 1.198,-0.79777 3.39862,-3.28842 7.06472,-5.19612 6.10516,-3.2318 16.08883,-5.2987 32.02097,3.58638 6.05897,3.39029 11.31952,5.9546 15.93183,7.90528 15.01694,6.38888 21.56777,4.03417 25.99262,-0.32121 0.76427,-0.7609 2.04802,-1.43775 3.72222,-2.03862 11.0606,-3.87299 40.16842,-3.17548 40.16842,-3.17548"
           style="opacity:1;fill:none;fill-opacity:1;stroke:#ff3d00;stroke-width:0.27730513;stroke-linecap:butt;stroke-linejoin:miter;stroke-miterlimit:4;stroke-dasharray:none;stroke-opacity:1"
           id="path1007" />
      </g>
    </g>
    <text
       xml:space="preserve"
       style="font-style:normal;font-weight:normal;font-size:50.8px;line-height:1.25;font-family:sans-serif;letter-spacing:0px;word-spacing:0px;fill:#000000;fill-opacity:1;stroke:none;stroke-width:0.264583"
       x="-1.3161877"
       y="224.04303"
       id="text917"><tspan
         sodipodi:role="line"
         id="tspan915"
         x="-1.3161877"
         y="224.04303"
         style="font-style:normal;font-variant:normal;font-weight:normal;font-stretch:normal;font-size:7.05556px;font-family:'Noto Serif';-inkscape-font-specification:'Noto Serif';fill:#ffffff;fill-opacity:1;stroke-width:0.264583">Interactive programming environment for machine learning.</tspan></text>
  </g>
</svg>
