<svg width="647.11" height="364" version="1.1" viewBox="0 0 171.21 96.308" xmlns="http://www.w3.org/2000/svg" xmlns:xlink="http://www.w3.org/1999/xlink">
 <defs>
  <linearGradient id="linearGradient954" x1="455.17" x2="485.19" y1="81.44" y2="64.498" gradientTransform="matrix(.26458 0 0 .26458 -161.63 142.42)" gradientUnits="userSpaceOnUse">
   <stop stop-color="#606dbb" offset="0"/>
   <stop stop-color="#fefefe" offset="1"/>
  </linearGradient>
  <linearGradient id="linearGradient936" x1="455.54" x2="413.83" y1="88.917" y2="129.08" gradientTransform="matrix(.26458 0 0 .26458 -161.63 142.42)" gradientUnits="userSpaceOnUse">
   <stop stop-color="#ff3d00" offset="0"/>
   <stop stop-color="#fbfbff" stop-opacity=".99395" offset="1"/>
  </linearGradient>
  <linearGradient id="linearGradient946" x1="477.71" x2="521.73" y1="105.98" y2="160.2" gradientTransform="matrix(.26458 0 0 .26458 -161.63 142.42)" gradientUnits="userSpaceOnUse">
   <stop stop-color="#3949ab" offset="0"/>
   <stop stop-color="#fff" stop-opacity="0" offset="1"/>
  </linearGradient>
  <radialGradient id="radialGradient918" cx="103.88" cy="344.2" r="154.52" gradientTransform="matrix(1.1645 -.50802 .18445 .42281 -188.54 146.37)" gradientUnits="userSpaceOnUse">
   <stop stop-color="#606dbb" offset="0"/>
   <stop stop-color="#273377" offset="1"/>
  </radialGradient>
 </defs>
 <g transform="translate(52.991 -142.42)">
  <g transform="translate(37.453)">
   <rect x="-159.92" y="142.42" width="309.03" height="96.308" fill="url(#radialGradient918)"/>
   <g transform="matrix(.92634 0 0 .92634 .17354 17.215)">
    <path d="m-31.093 150.93-9.3431 1.4736a37.14 37.174 0 0 0 4.5272 12.808l0.0011-5.3e-4a5.7727 5.7727 0 0 1 0.58594 1.3832 5.7727 5.7727 0 0 0 0.51649-0.16459 5.7727 5.7727 0 0 1-0.51649 0.16459 5.7727 5.7727 0 0 1-0.56886 4.3938 5.7727 5.7727 0 0 1-0.90925 1.1775 5.7727 5.7727 0 0 0 0.35033 0.32178 5.7727 5.7727 0 0 1-0.35033-0.32178 5.7727 5.7727 0 0 1-6.9764 0.93546 5.7727 5.7727 0 0 1-2.0196-1.9606 10.496 10.496 0 0 0 3.7483 3.6894 10.496 10.496 0 0 0 14.024-3.357 5.7727 5.7727 0 0 1-0.01744 0.0219 10.496 10.496 0 0 0 0.32953-0.51006 10.496 10.496 0 0 0 0.20448-0.38504 5.7727 5.7727 0 0 1-0.0118 0.0277 10.496 10.496 0 0 0-0.20188-10.15l0.0018-8.3e-4a27.682 27.707 0 0 1-3.3744-9.5458zm-0.13174 11.573a5.7727 5.7727 0 0 1-0.0053 0.0202 5.7727 5.7727 0 0 0-0.02175-4e-3zm0.44667 0.16412a5.7727 5.7727 0 0 1 0.26772 0.10461 5.7727 5.7727 0 0 0-0.26772-0.10461zm0.533 0.21929a5.7727 5.7727 0 0 1 0.42198 0.21568 5.7727 5.7727 0 0 0-0.42198-0.21568zm-1.1262 0.0742a5.7727 5.7727 0 0 1-0.10484 0.26894 5.7727 5.7727 0 0 0 0.10484-0.26894zm-0.22026 0.53284a5.7727 5.7727 0 0 1-0.2089 0.40961 5.7727 5.7727 0 0 0 0.2089-0.40961zm3.117 0.68489a5.7727 5.7727 0 0 1 0.20163 0.24078 5.7727 5.7727 0 0 0-0.20163-0.24078zm-3.6204 0.1799a5.7727 5.7727 0 0 1-0.17758 0.22771 5.7727 5.7727 0 0 0 0.17758-0.22771zm-0.35752 0.45283a5.7727 5.7727 0 0 1-0.19889 0.20827 5.7727 5.7727 0 0 0 0.19889-0.20827zm-0.40098 0.41491a5.7727 5.7727 0 0 1-0.21861 0.18733 5.7727 5.7727 0 0 0 0.21861-0.18733zm5.3409 0.36393a5.7727 5.7727 0 0 1 0.13269 0.31195 5.7727 5.7727 0 0 0-0.13269-0.31195zm-5.781 9e-3a5.7727 5.7727 0 0 1-0.23711 0.16521 5.7727 5.7727 0 0 0 0.23711-0.16521zm-0.47524 0.3269a5.7727 5.7727 0 0 1-0.25275 0.14085 5.7727 5.7727 0 0 0 0.25275-0.14085zm6.4804 0.19426a5.7727 5.7727 0 0 1 0.11092 0.35575 5.7727 5.7727 0 0 0-0.11092-0.35575zm-6.9859 0.0836a5.7727 5.7727 0 0 1-0.26466 0.11455 5.7727 5.7727 0 0 0 0.26466-0.11455zm7.1561 0.46588a5.7727 5.7727 0 0 1 0.08223 0.40101 5.7727 5.7727 0 0 0-0.08223-0.40101zm0.11469 0.56352a5.7727 5.7727 0 0 1 0.04537 0.44204 5.7727 5.7727 0 0 0-0.04537-0.44204zm0.05809 0.57232a5.7727 5.7727 0 0 1 0.0011 0.47526 5.7727 5.7727 0 0 0-0.0011-0.47526zm6.96e-4 0.5755a5.7727 5.7727 0 0 1-0.0489 0.49853 5.7727 5.7727 0 0 0 0.0489-0.49853zm-0.05657 0.57295a5.7727 5.7727 0 0 1-0.10427 0.52042 5.7727 5.7727 0 0 0 0.10427-0.52042zm-0.11325 0.56416a5.7727 5.7727 0 0 1-0.16272 0.53026 5.7727 5.7727 0 0 0 0.16272-0.53026zm-0.16904 0.55052a5.7727 5.7727 0 0 1-0.2229 0.53051 5.7727 5.7727 0 0 0 0.2229-0.53051zm-1.035 1.7743a5.7727 5.7727 0 0 1-0.23819 0.25865 5.7727 5.7727 0 0 0 0.23819-0.25865zm-0.3957 0.41997a5.7727 5.7727 0 0 1-0.26167 0.23258 5.7727 5.7727 0 0 0 0.26167-0.23258zm-0.43586 0.37848a5.7727 5.7727 0 0 1-0.28163 0.2039 5.7727 5.7727 0 0 0 0.28163-0.2039zm-7.0747 0.0272a5.7727 5.7727 0 0 0 0.23046 0.17263 5.7727 5.7727 0 0 1-0.23046-0.17263zm6.6029 0.30601a5.7727 5.7727 0 0 1-0.29785 0.17316 5.7727 5.7727 0 0 0 0.29785-0.17316zm-5.9738 0.12663a5.7727 5.7727 0 0 0 0.43984 0.22531 5.7727 5.7727 0 0 1-0.43984-0.22531zm5.471 0.15777a5.7727 5.7727 0 0 1-0.31016 0.14099 5.7727 5.7727 0 0 0 0.31016-0.14099zm-4.7725 0.17771a5.7727 5.7727 0 0 0 0.27689 0.10848 5.7727 5.7727 0 0 1-0.27689-0.10848zm4.2436 0.055a5.7727 5.7727 0 0 1-0.3189 0.10804 5.7727 5.7727 0 0 0 0.3189-0.10804zm-3.7043 0.1354a5.7727 5.7727 0 0 0 0.29254 0.082 5.7727 5.7727 0 0 1-0.29254-0.082zm3.1548 0.0433a5.7727 5.7727 0 0 1-0.32386 0.0747 5.7727 5.7727 0 0 0 0.32386-0.0747zm-2.5995 0.0928a5.7727 5.7727 0 0 0 0.30561 0.0535 5.7727 5.7727 0 0 1-0.30561-0.0535zm2.0347 0.0301a5.7727 5.7727 0 0 1-0.32456 0.0413 5.7727 5.7727 0 0 0 0.32456-0.0413zm-1.4679 0.0503a5.7727 5.7727 0 0 0 0.31512 0.0231 5.7727 5.7727 0 0 1-0.31512-0.0231zm0.89331 0.0154a5.7727 5.7727 0 0 1-0.32172 9e-3 5.7727 5.7727 0 0 0 0.32172-9e-3z" fill="url(#linearGradient946)"/>
    <path d="m-39.749 155.69a10.496 10.496 0 0 0-6.1397 4.8054 10.496 10.496 0 0 0-0.22216 10.067 5.7727 5.7727 0 0 1-0.0029-7e-3 10.496 10.496 0 0 0 0.32293 0.59506 5.7727 5.7727 0 0 0 2.015 1.954 5.7727 5.7727 0 0 0 6.9764-0.93548 5.7727 5.7727 0 0 0 0.90928-1.1775 5.7727 5.7727 0 0 0 0.56882-4.3938 5.7727 5.7727 0 0 1-2.9571 8.2e-4 5.7727 5.7727 0 0 0-0.08871 0.4098 5.7727 5.7727 0 0 1 0.08871-0.4098 5.7727 5.7727 0 0 1-1.4071-0.57883 5.7727 5.7727 0 0 1-2.6818-3.4918 5.7727 5.7727 0 0 1 0.56886-4.3938 5.7727 5.7727 0 0 1 2.1194-2.1087 37.14 37.174 0 0 1-0.07008-0.33504zm1.3339 11.602a5.7727 5.7727 0 0 0-0.03258 0.28682 5.7727 5.7727 0 0 1 0.03258-0.28682zm-0.0521 0.574a5.7727 5.7727 0 0 0-0.0038 0.28869 5.7727 5.7727 0 0 1 0.0038-0.28869zm0.0055 0.57672a5.7727 5.7727 0 0 0 0.025 0.28736 5.7727 5.7727 0 0 1-0.025-0.28736zm0.063 0.57301a5.7727 5.7727 0 0 0 0.05356 0.28334 5.7727 5.7727 0 0 1-0.05356-0.28334zm0.11995 0.56419a5.7727 5.7727 0 0 0 0.08141 0.276 5.7727 5.7727 0 0 1-0.08141-0.276zm0.1757 0.5493a5.7727 5.7727 0 0 0 0.10851 0.26631 5.7727 5.7727 0 0 1-0.10851-0.26631zm0.22956 0.52875a5.7727 5.7727 0 0 0 0.13454 0.25421 5.7727 5.7727 0 0 1-0.13454-0.25421zm0.28114 0.50319a5.7727 5.7727 0 0 0 0.15965 0.24004 5.7727 5.7727 0 0 1-0.15965-0.24004zm0.32978 0.47233a5.7727 5.7727 0 0 0 0.18316 0.22333 5.7727 5.7727 0 0 1-0.18316-0.22333z" fill="url(#linearGradient936)"/>
    <path d="m-39.679 156.02a5.7727 5.7727 0 0 0-2.1197 2.1075 5.7727 5.7727 0 0 0-0.56882 4.3938 5.7727 5.7727 0 0 0 2.6818 3.4918 5.7727 5.7727 0 0 0 1.4071 0.57885 5.7727 5.7727 0 0 1 0.57029-1.3798 5.7727 5.7727 0 0 1 0.90928-1.1775 5.7727 5.7727 0 0 0-0.35024-0.32166 5.7727 5.7727 0 0 1 0.35024 0.32166 5.7727 5.7727 0 0 1 0.17834-0.16247 37.14 37.174 0 0 1-3.0583-7.8521zm-0.97353 6.3127a5.7727 5.7727 0 0 1 0.23632 0.0214 5.7727 5.7727 0 0 0-0.287-0.0208 5.7727 5.7727 0 0 1 0.05069-5.2e-4zm-0.33948 3e-3a5.7727 5.7727 0 0 0-0.28809 8e-3 5.7727 5.7727 0 0 1 0.28809-8e-3zm-0.57425 0.0393a5.7727 5.7727 0 0 0-0.28668 0.0366 5.7727 5.7727 0 0 1 0.28668-0.0366zm1.4378 5e-3a5.7727 5.7727 0 0 1 0.28388 0.0496 5.7727 5.7727 0 0 0-0.28388-0.0496zm0.56728 0.10421a5.7727 5.7727 0 0 1 0.278 0.0778 5.7727 5.7727 0 0 0-0.278-0.0778zm0.55383 0.16023a5.7727 5.7727 0 0 1 0.26943 0.10538 5.7727 5.7727 0 0 0-0.26943-0.10538zm0.5355 0.21489a5.7727 5.7727 0 0 1 0.46846 0.23966 5.7727 5.7727 0 0 0-0.46846-0.23966zm0.86714 0.49968a5.7727 5.7727 0 0 1 0.23024 0.17244 5.7727 5.7727 0 0 0-0.23024-0.17244z" fill="url(#linearGradient954)"/>
    <g fill="#606dbb" stroke="#bbc2e9" stroke-linecap="round" stroke-width=".52479">
     <path d="m-37.443 154.93 4.9449-0.90466"/>
     <path d="m-36.884 156.96 4.9229-1.0175"/>
     <path d="m-36.055 159.08 4.8771-1.2182"/>
    </g>
    <text x="-22.754679" y="169.8456" fill="#000000" font-family="Helvetica" font-size="22.061px" font-weight="bold" letter-spacing="0px" stroke-width=".1149" word-spacing="0px" style="line-height:1.25" xml:space="preserve"><tspan x="-22.754679" y="169.8456" font-family="Helvetica" font-size="16.933px" font-weight="bold" stroke-width=".1149"><tspan fill="#ffffff">Web</tspan><tspan fill="#ff3d00">lab</tspan></tspan></text>
   </g>
   <g transform="translate(-106.93 11.03)" fill="none" stroke="#ff3d00">
    <path d="m-64.937 192.93s19.234-0.38394 29.132-0.76789c9.8981-0.38395 13.722-1.5183 15.972-2.6702 13.048-3.8744 23.327-4.2301 34.081 0.0873 8.6798 3.4846 34.172 11.251 53.54 1.8499 13.897-6.7457 24.295-10.227 37.905 0.31414 13.61 10.541 28-4.2261 30.482-6.1781 4.9491-3.8919 10.573-12.95 36.556 3.1065 25.983 16.056 36.106 13.072 42.067 6.9111 5.9614-6.1606 43.754-5.2182 43.754-5.2182" stroke-width=".18867"/>
    <path d="m-60.55 198.47s19.234-0.28795 29.132-0.57591c9.8981-0.28795 13.722-1.1387 15.972-2.0026 2.2496-0.86386 12.373-6.1125 30.257-0.30103 17.884 5.8114 47.588 13.638 63.551 1.1256 24.295-19.044 32.956-13.674 44.767-0.25308 7.1348 8.1076 15.185 0.70246 20.134-2.5306 10.123-4.6641 24.52-11.64 50.503 0.40143 25.983 12.042 19.459 10.746 25.42 6.1256 5.9614-4.6204 43.754-3.9136 43.754-3.9136" stroke-width=".19774"/>
    <path d="m-54.364 204.63s19.234-0.17931 29.132-0.35862c9.8981-0.17931 19.54 0.72127 22.046 1.2312 7.6486 1.5564 16.313 3.4697 33.181-0.22236 28.274-6.1885 25.308 4.9359 48.478-2.6848 23.171-7.6208 24.183-3.4426 37.793 1.4804 13.61 4.9229 25.083-0.23637 28.007-1.1411 2.9244-0.90471 13.048-7.7919 39.03-0.29342 25.983 7.4985 36.106 6.1047 42.067 3.2276 5.9614-2.8771 43.754-2.437 43.754-2.437" stroke-width=".19774"/>
    <g transform="matrix(1 0 0 .50849 0 88.215)">
     <g stroke-width=".26458">
      <path d="m-64.679 206.57s18.773-0.72586 28.77-1.4606c0.12995-0.01 0.25845-0.0191 0.38544-0.0287 8.8599-0.66733 12.843-2.4984 15.194-4.4745 0.28594-0.24069 0.55272-0.4882 0.80591-0.73916 10.781-6.3423 20.006-8.1245 29.622-2.6583 1.4777 0.83527 2.9605 1.832 4.4557 2.9946 9.1372 7.0303 34.499 22.001 53.615 3.691 1.642-1.5735 3.233-3.0752 4.7827-4.4731 11.741-10.764 21.2-14.046 32.911 3.3979 7.6183 11.32 15.427 7.6834 21.287 2.0704 4.4166-4.2012 7.7284-10.143 8.9533-11.879 2.0782-3.0808 4.2456-7.8548 7.7207-10.351 5.3293-3.801 13.675-3.0939 29.092 14.869 5.5153 6.434 10.392 11.376 14.745 15.15 16.084 13.947 22.666 8.554 27.344-0.88254 0.24698-0.49779 0.54681-0.9746 0.89533-1.4313 7.9931-10.451 42.911-8.7659 42.911-8.7659"/>
      <path d="m-64.421 207.21s18.802-0.71589 28.792-1.4401c0.13002-9e-3 0.25861-0.0189 0.38573-0.0283 8.9068-0.66233 12.876-2.4822 15.218-4.4395 0.2815-0.2358 0.54954-0.48291 0.80934-0.73653 10.319-6.1194 19.581-8.2562 29.608-2.4856 1.4769 0.84162 2.9637 1.8363 4.4661 2.9865 9.5947 7.2076 34.827 21.875 53.69 3.744 1.6301-1.568 3.2075-3.0836 4.7407-4.5179 11.889-11.451 21.309-14.875 32.741 1.7498 7.4688 10.808 15.064 7.9164 20.867 3.3457 4.3829-3.397 7.747-8.9894 9.1312-10.813 2.1464-3.0532 4.3599-7.8171 7.759-10.339 5.4659-3.9889 13.906-3.9082 29.311 13.266 5.5008 6.1477 10.443 11.007 14.942 14.926 16.611 14.473 22.505 9.3529 27.168 0.0168 0.24801-0.49568 0.54751-0.97319 0.8951-1.4331 7.8662-10.366 42.964-8.6991 42.964-8.6991"/>
      <path d="m-64.163 207.85s18.83-0.70592 28.815-1.4196c0.13009-9e-3 0.25878-0.0186 0.38602-0.028 8.9536-0.65735 12.908-2.466 15.242-4.4046 0.27707-0.23091 0.54637-0.47762 0.81277-0.73389 9.8574-5.8966 19.157-8.3879 29.594-2.3129 1.4762 0.84796 2.9668 1.8406 4.4765 2.9785 10.052 7.385 35.154 21.749 53.765 3.7969 1.6181-1.5625 3.182-3.0919 4.6987-4.5628 12.038-12.138 21.419-15.704 32.571 0.1017 7.3194 10.296 14.701 8.1494 20.448 4.6209 4.3492-2.5928 7.7656-7.8354 9.3091-9.747 2.2146-3.0256 4.4742-7.7794 7.7974-10.326 5.6024-4.1769 14.138-4.7224 29.531 11.662 5.4862 5.8614 10.494 10.638 15.14 14.703 17.139 14.998 22.344 10.152 26.992 0.91621 0.24903-0.49358 0.54819-0.9718 0.89486-1.435 7.7392-10.28 43.017-8.6322 43.017-8.6322"/>
      <path d="m-63.905 208.49s18.859-0.69595 28.838-1.3991c0.13016-9e-3 0.25895-0.0184 0.38631-0.0276 9.0004-0.65236 12.941-2.4497 15.267-4.3696 0.27264-0.22601 0.5432-0.47232 0.81619-0.73125 9.3958-5.6737 18.733-8.5196 29.579-2.1402 1.4755 0.85431 2.97 1.8448 4.4869 2.9705 10.51 7.5624 35.481 21.624 53.841 3.8498 1.6062-1.557 3.1566-3.1002 4.6568-4.6076 12.186-12.825 21.528-16.533 32.401-1.5464 7.1699 9.7842 14.339 8.3824 20.028 5.8962 4.3156-1.7886 7.7842-6.6814 9.487-8.681 2.2828-2.9981 4.5885-7.7417 7.8357-10.314 5.739-4.3649 14.37-5.5367 29.75 10.059 5.4716 5.575 10.546 10.269 15.337 14.48 17.667 15.524 22.183 10.951 26.816 1.8156 0.25005-0.49147 0.54888-0.97039 0.89462-1.4368 7.6122-10.195 43.069-8.5654 43.069-8.5654"/>
      <path d="m-63.647 209.13s18.888-0.68597 28.86-1.3786c0.13024-9e-3 0.25912-0.0181 0.3866-0.0273 9.0472-0.64738 12.973-2.4335 15.291-4.3347 0.26821-0.22112 0.54003-0.46703 0.81962-0.72861 8.9342-5.4508 18.309-8.6513 29.565-1.9675 1.4747 0.86066 2.9732 1.8491 4.4973 2.9624 10.967 7.7397 35.808 21.498 53.916 3.9028 1.5942-1.5516 3.1311-3.1085 4.6148-4.6524 12.334-13.511 21.637-17.362 32.231-3.1945 7.0205 9.2723 13.976 8.6154 19.609 7.1714 4.2819-0.98441 7.8029-5.5275 9.6649-7.615 2.351-2.9705 4.7028-7.704 7.874-10.302 5.8755-4.5528 14.602-6.351 29.969 8.4554 5.4571 5.2887 10.597 9.8996 15.535 14.256 18.195 16.049 22.021 11.75 26.64 2.715 0.25107-0.48937 0.54958-0.969 0.89439-1.4386 7.4852-10.11 43.122-8.4986 43.122-8.4986"/>
      <path d="m-63.389 209.77s18.917-0.676 28.883-1.3581c0.13031-9e-3 0.25928-0.0179 0.3869-0.0269 9.094-0.64239 13.006-2.4173 15.315-4.2997 0.26377-0.21623 0.53686-0.46175 0.82305-0.72598 8.4726-5.2279 17.885-8.783 29.551-1.7948 1.474 0.86701 2.9764 1.8534 4.5077 2.9544 11.425 7.9171 36.135 21.372 53.991 3.9557 1.5822-1.5461 3.1056-3.1169 4.5728-4.6973 12.482-14.198 21.746-18.191 32.061-4.8427 6.871 8.7604 13.613 8.8484 19.189 8.4466 4.2482-0.18021 7.8215-4.3735 9.8428-6.549 2.4192-2.9429 4.8172-7.6662 7.9123-10.289 6.0121-4.7408 14.834-7.1652 30.188 6.852 5.4425 5.0024 10.648 9.5306 15.732 14.033 18.723 16.575 21.86 12.548 26.464 3.6143 0.25209-0.48727 0.55027-0.96761 0.89414-1.4405 7.3582-10.025 43.175-8.4317 43.175-8.4317"/>
      <path d="m-63.131 210.41s18.946-0.66603 28.905-1.3376c0.13038-9e-3 0.25945-0.0176 0.38719-0.0266 9.1409-0.6374 13.038-2.4011 15.339-4.2648 0.25934-0.21132 0.53368-0.45645 0.82647-0.72333 8.011-5.0051 17.461-8.9146 29.537-1.6221 1.4733 0.87335 2.9796 1.8576 4.5181 2.9464 11.882 8.0945 36.462 21.246 54.066 4.0087 1.5703-1.5406 3.0802-3.1252 4.5309-4.7421 12.63-14.885 21.856-19.02 31.891-6.4908 6.7216 8.2486 13.251 9.0814 18.77 9.7219 4.2146 0.624 7.8401-3.2196 10.021-5.483 2.4874-2.9153 4.9315-7.6285 7.9506-10.277 6.1486-4.9288 15.065-7.9795 30.407 5.2486 5.428 4.7161 10.699 9.1617 15.93 13.809 19.25 17.1 21.699 13.347 26.288 4.5137 0.25311-0.48517 0.55096-0.9662 0.8939-1.4423 7.2312-9.9393 43.227-8.3649 43.227-8.3649"/>
      <path d="m-62.873 211.05s18.975-0.65605 28.928-1.3171c0.13045-9e-3 0.25962-0.0174 0.38748-0.0262 9.1877-0.63241 13.07-2.3848 15.364-4.2298 0.25491-0.20643 0.53051-0.45116 0.8299-0.7207 7.5494-4.7822 17.037-9.0463 29.523-1.4494 1.4726 0.8797 2.9827 1.8619 4.5285 2.9384 12.339 8.2719 36.79 21.121 54.141 4.0616 1.5583-1.5352 3.0547-3.1335 4.4889-4.787 12.778-15.572 21.965-19.849 31.721-8.1389 6.5721 7.7367 12.888 9.3144 18.35 10.997 4.1809 1.4282 7.8587-2.0656 10.199-4.417 2.5556-2.8877 5.0458-7.5908 7.989-10.265 6.2852-5.1168 15.297-8.7938 30.626 3.6452 5.4134 4.4298 10.75 8.7927 16.128 13.586 19.778 17.626 21.538 14.146 26.112 5.4131 0.25413-0.48307 0.55164-0.96481 0.89366-1.4442 7.1042-9.854 43.28-8.298 43.28-8.298"/>
      <path d="m-62.615 211.7s19.003-0.64609 28.951-1.2966c0.13052-9e-3 0.25979-0.0171 0.38777-0.0259 9.2345-0.62743 13.103-2.3686 15.388-4.1948 0.25048-0.20154 0.52734-0.44587 0.83333-0.71806 7.0877-4.5593 16.613-9.178 29.509-1.2767 1.4718 0.88605 2.9859 1.8662 4.5389 2.9304 12.797 8.4492 37.117 20.995 54.216 4.1145 1.5463-1.5297 3.0292-3.1418 4.4469-4.8318 12.926-16.259 22.074-20.678 31.551-9.787 6.4227 7.2248 12.525 9.5474 17.931 12.272 4.1472 2.2324 7.8773-0.91168 10.377-3.3509 2.6238-2.8601 5.1602-7.5531 8.0273-10.252 6.4217-5.3047 15.529-9.6081 30.845 2.0418 5.3989 4.1434 10.801 8.4237 16.325 13.362 20.306 18.152 21.377 14.945 25.936 6.3125 0.25516-0.48097 0.55234-0.96341 0.89343-1.446 6.9772-9.7688 43.333-8.2312 43.333-8.2312"/>
      <path d="m-62.357 212.34s19.032-0.63611 28.973-1.2761c0.1306-8e-3 0.25996-0.0169 0.38806-0.0255 9.2813-0.62244 13.135-2.3524 15.412-4.1599 0.24604-0.19664 0.52417-0.44057 0.83676-0.71542 6.6261-4.3365 16.189-9.3097 29.495-1.104 1.4711 0.8924 2.9891 1.8704 4.5493 2.9223 13.254 8.6266 37.444 20.869 54.291 4.1675 1.5344-1.5242 3.0038-3.1502 4.405-4.8766 13.075-16.946 22.184-21.507 31.382-11.435 6.2732 6.713 12.163 9.7804 17.511 13.548 4.1136 3.0366 7.8959 0.24228 10.554-2.2849 2.692-2.8326 5.2745-7.5154 8.0656-10.24 6.5583-5.4927 15.761-10.422 31.064 0.43833 5.3843 3.8571 10.852 8.0547 16.523 13.139 20.834 18.677 21.215 15.744 25.76 7.2118 0.25617-0.47886 0.55303-0.96201 0.89319-1.4479 6.8503-9.6835 43.386-8.1643 43.386-8.1643"/>
      <path d="m-62.099 212.98s19.061-0.62614 28.996-1.2556c0.13067-8e-3 0.26012-0.0167 0.38836-0.0252 9.3281-0.61746 13.168-2.3362 15.436-4.125 0.24161-0.19175 0.521-0.43529 0.84018-0.71278 6.1645-4.1136 15.765-9.4414 29.481-0.93127 1.4704 0.89874 2.9923 1.8747 4.5597 2.9143 13.712 8.804 37.771 20.743 54.367 4.2204 1.5224-1.5188 2.9783-3.1585 4.363-4.9215 13.223-17.633 22.293-22.336 31.212-13.083 6.1238 6.2011 11.8 10.013 17.092 14.823 4.0799 3.8408 7.9145 1.3962 10.732-1.2189 2.7602-2.805 5.3888-7.4777 8.1039-10.228 6.6948-5.6807 15.993-11.237 31.283-1.1651 5.3698 3.5708 10.903 7.6858 16.72 12.916 21.362 19.203 21.054 16.543 25.584 8.1112 0.25719-0.47676 0.55372-0.96061 0.89295-1.4497 6.7233-9.5982 43.438-8.0975 43.438-8.0975"/>
      <path d="m-61.841 213.62s19.09-0.61616 29.019-1.2351c0.13074-8e-3 0.26029-0.0164 0.38865-0.0248 9.375-0.61246 13.2-2.32 15.461-4.09 0.23718-0.18686 0.51782-0.43 0.84361-0.71015 5.7029-3.8907 15.341-9.5731 29.467-0.75857 1.4696 0.90509 2.9955 1.879 4.5701 2.9063 14.169 8.9813 38.098 20.617 54.442 4.2733 1.5105-1.5133 2.9528-3.1668 4.321-4.9663 13.371-18.32 22.402-23.164 31.042-14.731 5.9743 5.6892 11.437 10.246 16.672 16.098 4.0462 4.6451 7.9331 2.5502 10.91-0.15285 2.8284-2.7774 5.5031-7.44 8.1423-10.215 6.8314-5.8686 16.224-12.051 31.502-2.7685 5.3552 3.2845 10.954 7.3168 16.918 12.692 21.889 19.728 20.893 17.342 25.408 9.0106 0.25822-0.47465 0.55442-0.95921 0.89272-1.4516 6.5963-9.5129 43.491-8.0306 43.491-8.0306"/>
      <path d="m-61.583 214.26s19.119-0.60619 29.041-1.2146c0.13081-8e-3 0.26046-0.0162 0.38894-0.0245 9.4218-0.60748 13.232-2.3037 15.485-4.055 0.23275-0.18196 0.51465-0.4247 0.84704-0.7075 5.2413-3.6679 14.917-9.7048 29.452-0.58587 1.4689 0.91143 2.9986 1.8832 4.5805 2.8982 14.627 9.1587 38.425 20.492 54.517 4.3263 1.4985-1.5078 2.9274-3.1752 4.2791-5.0111 13.519-19.007 22.512-23.993 30.872-16.38 5.8249 5.1774 11.075 10.479 16.253 17.373 4.0126 5.4493 7.9517 3.7041 11.088 0.91317 2.8966-2.7498 5.6174-7.4023 8.1806-10.203 6.968-6.0566 16.456-12.865 31.721-4.3719 5.3406 2.9982 11.005 6.9478 17.115 12.469 22.417 20.254 20.732 18.141 25.233 9.91 0.25924-0.47255 0.5551-0.95782 0.89248-1.4534 6.4693-9.4276 43.544-7.9638 43.544-7.9638"/>
      <path d="m-61.325 214.9s19.147-0.59622 29.064-1.1941c0.13088-8e-3 0.26063-0.0159 0.38923-0.0241 9.4686-0.60249 13.265-2.2875 15.509-4.0201 0.22831-0.17706 0.51148-0.41941 0.85046-0.70487 4.7797-3.445 14.493-9.8364 29.438-0.41317 1.4682 0.91779 3.0018 1.8875 4.5909 2.8902 15.084 9.3361 38.753 20.366 54.592 4.3792 1.4865-1.5024 2.9019-3.1835 4.2371-5.056 13.667-19.694 22.621-24.822 30.702-18.028 5.6754 4.6655 10.712 10.712 15.833 18.649 3.9789 6.2535 7.9703 4.8581 11.266 1.9792 2.9648-2.7222 5.7318-7.3646 8.2189-10.191 7.1045-6.2446 16.688-13.679 31.94-5.9754 5.3261 2.7119 11.056 6.5788 17.313 12.245 22.945 20.779 20.571 18.94 25.057 10.809 0.26026-0.47046 0.55579-0.95642 0.89223-1.4552 6.3423-9.3423 43.596-7.897 43.596-7.897"/>
      <path d="m-61.067 215.54s19.176-0.58624 29.087-1.1736c0.13095-8e-3 0.26079-0.0157 0.38952-0.0238 9.5154-0.59751 13.297-2.2713 15.533-3.9851 0.22388-0.17217 0.50831-0.41412 0.85389-0.70223 4.3181-3.2221 14.069-9.9681 29.424-0.24047 1.4674 0.92413 3.005 1.8918 4.6013 2.8822 15.542 9.5135 39.08 20.24 54.667 4.4322 1.4746-1.4969 2.8764-3.1918 4.1952-5.1008 13.815-20.38 22.73-25.651 30.532-19.676 5.526 4.1537 10.349 10.945 15.414 19.924 3.9452 7.0577 7.9889 6.012 11.444 3.0452 3.033-2.6946 5.8461-7.3269 8.2572-10.178 7.2411-6.4325 16.92-14.494 32.159-7.5788 5.3115 2.4255 11.107 6.2099 17.51 12.022 23.473 21.305 20.41 19.738 24.881 11.709 0.26128-0.46835 0.55649-0.95502 0.892-1.4571 6.2153-9.257 43.649-7.8301 43.649-7.8301"/>
      <path d="m-60.809 216.18s19.205-0.57628 29.109-1.1531c0.13102-8e-3 0.26096-0.0154 0.38981-0.0234 9.5622-0.59252 13.33-2.2551 15.558-3.9502 0.21945-0.16727 0.50514-0.40883 0.85732-0.69959 3.8565-2.9992 13.645-10.1 29.41-0.0678 1.4667 0.93048 3.0082 1.896 4.6117 2.8742 15.999 9.6908 39.407 20.114 54.742 4.4851 1.4626-1.4914 2.851-3.2002 4.1532-5.1456 13.964-21.067 22.84-26.48 30.362-21.324 5.3765 3.6418 9.9868 11.178 14.994 21.199 3.9116 7.8619 8.0075 7.166 11.622 4.1112 3.1012-2.667 5.9604-7.2892 8.2956-10.166 7.3776-6.6205 17.152-15.308 32.379-9.1822 5.297 2.1392 11.158 5.8409 17.708 11.799 24.001 21.83 20.248 20.537 24.705 12.608 0.2623-0.46625 0.55718-0.95362 0.89176-1.4589 6.0884-9.1717 43.702-7.7633 43.702-7.7633"/>
     </g>
     <g stroke-width=".2773">
      <path d="m-60.187 217.54s19.01-0.54963 28.934-1.101c1.37-0.0765 2.6247-0.17323 3.7737-0.28749 6.949-0.69998 10.1-2.0462 12.124-3.4012 1.4666-0.84809 5.1107-4.1303 10.828-5.1287 4.8918-0.732 11.297 0.0931 19.313 4.9061 4.6488 2.7917 10.1 5.7844 15.945 8.2082 17.102 6.6226 35.184 11.199 47.449-6.5648 0.80067-1.1764 1.589-2.3098 2.3661-3.4016 18.202-25.722 26.763-24.013 35.732-9.8661 2.3899 3.72 4.7434 8.1469 7.1874 13.1 4.8678 9.8552 9.9963 7.0149 14.198 2.3398 2.1932-2.4371 4.2594-5.5342 6.0767-7.6937 7.6346-6.7739 17.852-15.965 33.841-9.4066 5.0037 2.0636 10.471 5.5091 16.502 10.865 20.772 18.476 20.811 20.103 23.283 15.269 0.54856-1.0887 1.2631-2.502 2.4061-4.1223 6.2801-8.7606 43.53-7.4139 43.53-7.4139"/>
      <path d="m-59.823 218.25s18.787-0.53296 28.736-1.0694c1.3595-0.074 2.6066-0.16697 3.7484-0.27639 6.763-0.66508 9.9624-1.9146 12.076-3.1628 1.6962-0.76193 5.3662-3.7842 10.82-4.6828 4.889-0.56504 11.222 0.3473 19.206 4.8295 4.6289 2.5998 10.057 5.3317 15.923 7.4378 17.715 5.4847 34.58 10.979 47.315-6.3647 0.81319-1.1378 1.6182-2.2401 2.4165-3.3088 18.513-25.051 26.602-22.935 35.86-9.0675 2.523 3.6885 4.9971 7.9029 7.5267 12.539 5.043 9.2235 10.211 6.2531 14.272 1.7959 2.1268-2.3278 4.202-5.3845 6.1425-7.5272 7.5327-6.5377 17.735-15.254 33.72-8.5404 5.0741 2.1521 10.528 5.5388 16.464 10.668 20.388 17.67 20.862 19.032 23.463 14.229 0.56294-1.0668 1.3154-2.4311 2.4938-3.9834 6.5988-8.4347 43.306-7.1313 43.306-7.1313"/>
      <path d="m-59.459 218.96s18.563-0.5163 28.538-1.0378c1.349-0.0715 2.5886-0.16071 3.723-0.26529 6.5769-0.63017 9.8252-1.783 12.027-2.9243 1.9258-0.67576 5.6216-3.4382 10.812-4.2368 4.8861-0.39809 11.147 0.6015 19.098 4.7529 4.6091 2.408 10.013 4.8791 15.901 6.6674 18.328 4.3468 33.976 10.759 47.181-6.1646 0.82571-1.0992 1.6474-2.1704 2.4668-3.216 18.823-24.38 26.441-21.858 35.989-8.2689 2.656 3.6569 5.2508 7.659 7.8659 11.977 5.2182 8.5918 10.427 5.4913 14.347 1.252 2.0605-2.2185 4.1446-5.2348 6.2084-7.3607 7.4307-6.3016 17.617-14.543 33.599-7.6742 5.1444 2.2405 10.584 5.5685 16.426 10.47 20.004 16.864 20.912 17.961 23.644 13.19 0.57732-1.045 1.3678-2.3602 2.5816-3.8445 6.9175-8.1089 43.082-6.8488 43.082-6.8488"/>
      <path d="m-59.095 219.68s18.34-0.49963 28.34-1.0062c1.3386-0.069 2.5705-0.15446 3.6976-0.25419 6.3909-0.59527 9.6879-1.6515 11.979-2.6858 2.1553-0.5896 5.877-3.0922 10.803-3.7908 4.8833-0.23113 11.073 0.85571 18.99 4.6764 4.5892 2.2162 9.9704 4.4265 15.879 5.897 18.941 3.2089 33.372 10.539 47.047-5.9645 0.83823-1.0606 1.6766-2.1007 2.5172-3.1232 19.134-23.709 26.28-20.78 36.118-7.4704 2.7891 3.6253 5.5044 7.415 8.2052 11.416 5.3934 7.9601 10.642 4.7295 14.422 0.70818 1.9942-2.1092 4.0873-5.0851 6.2743-7.1942 7.3287-6.0655 17.499-13.832 33.477-6.808 5.2148 2.329 10.641 5.5982 16.388 10.273 19.621 16.058 20.963 16.889 23.825 12.151 0.5917-1.0231 1.4201-2.2892 2.6693-3.7056 7.2362-7.7831 42.858-6.5662 42.858-6.5662"/>
      <path d="m-58.731 220.39s18.116-0.48296 28.142-0.9746c1.3281-0.0664 2.5525-0.1482 3.6722-0.24308 6.2048-0.56037 9.5506-1.5199 11.93-2.4473 2.3849-0.50343 6.1324-2.7461 10.795-3.3449 4.8804-0.0642 10.998 1.1099 18.882 4.5998 4.5694 2.0244 9.9273 3.9738 15.857 5.1266 19.554 2.0709 32.768 10.319 46.914-5.7644 0.85075-1.022 1.7058-2.031 2.5676-3.0304 19.444-23.038 26.118-19.702 36.247-6.6718 2.9222 3.5937 5.7581 7.171 8.5444 10.855 5.5686 7.3284 10.857 3.9678 14.496 0.16432 1.9278-2 4.0299-4.9353 6.3401-7.0277 7.2268-5.8293 17.382-13.121 33.356-5.9418 5.2851 2.4174 10.698 5.6279 16.35 10.076 19.237 15.253 21.013 15.818 24.005 11.111 0.60608-1.0013 1.4724-2.2182 2.7571-3.5666 7.5549-7.4572 42.634-6.2836 42.634-6.2836"/>
      <path d="m-58.367 221.1s17.892-0.46629 27.943-0.943c1.3176-0.0639 2.5344-0.14194 3.6468-0.23198 6.0188-0.52547 9.4133-1.3883 11.882-2.2088 2.6144-0.41727 6.3878-2.4001 10.787-2.8989 4.8776 0.10278 10.923 1.3641 18.775 4.5232 4.5496 1.8326 9.8843 3.5212 15.835 4.3562 20.168 0.933 32.164 10.099 46.78-5.5643 0.86327-0.98334 1.735-1.9614 2.618-2.9376 19.755-22.367 25.957-18.625 36.376-5.8732 3.0552 3.5621 6.0118 6.927 8.8836 10.293 5.7438 6.6968 11.072 3.206 14.571-0.37954 1.8614-1.8907 3.9725-4.7856 6.406-6.8612 7.1248-5.5932 17.264-12.409 33.235-5.0756 5.3555 2.5058 10.754 5.6576 16.312 9.8784 18.853 14.447 21.063 14.747 24.186 10.072 0.62046-0.97941 1.5248-2.1473 2.8448-3.4277 7.8736-7.1314 42.41-6.0011 42.41-6.0011"/>
      <path d="m-58.003 221.82s17.669-0.44963 27.745-0.9114c1.3071-0.0614 2.5163-0.13569 3.6214-0.22088 5.8327-0.49056 9.276-1.2568 11.833-1.9703 2.844-0.3311 6.6433-2.0541 10.779-2.453 4.8747 0.26974 10.848 1.6183 18.667 4.4466 4.5297 1.6408 9.8412 3.0686 15.812 3.5858 20.781-0.20492 31.56 9.8787 46.646-5.3642 0.87579-0.94473 1.7642-1.8917 2.6683-2.8448 20.066-21.696 25.796-17.547 36.505-5.0746 3.1883 3.5305 6.2655 6.683 9.2229 9.7318 5.919 6.0651 11.287 2.4442 14.645-0.92341 1.7951-1.7814 3.9151-4.6359 6.4719-6.6947 7.0228-5.357 17.147-11.698 33.113-4.2094 5.4258 2.5943 10.811 5.6873 16.274 9.681 18.47 13.641 21.114 13.676 24.367 9.0326 0.63485-0.95756 1.5771-2.0763 2.9326-3.2888 8.1923-6.8056 42.185-5.7185 42.185-5.7185"/>
      <path d="m-57.639 222.53s17.445-0.43296 27.547-0.8798c1.2967-0.0589 2.4983-0.12943 3.5961-0.20978 5.6467-0.45566 9.1387-1.1252 11.785-1.7318 3.0735-0.24495 6.8987-1.708 10.771-2.007 4.8718 0.4367 10.773 1.8726 18.559 4.37 4.5099 1.449 9.7981 2.6159 15.79 2.8154 21.394-1.3428 30.956 9.6588 46.512-5.1641 0.88832-0.90612 1.7934-1.822 2.7187-2.7519 20.376-21.025 25.634-16.469 36.633-4.276 3.3214 3.4989 6.5192 6.439 9.5621 9.1704 6.0942 5.4334 11.502 1.6824 14.72-1.4673 1.7288-1.6721 3.8577-4.4862 6.5378-6.5282 6.9209-5.1209 17.029-10.987 32.992-3.3432 5.4962 2.6827 10.867 5.717 16.236 9.4837 18.086 12.835 21.164 12.604 24.547 7.9933 0.64922-0.9357 1.6294-2.0054 3.0203-3.1499 8.511-6.4797 41.961-5.436 41.961-5.436"/>
      <path d="m-57.275 223.24s17.222-0.41628 27.349-0.84819c1.2862-0.0564 2.4802-0.12317 3.5707-0.19868 5.4606-0.42076 9.0014-0.99361 11.736-1.4933 3.3031-0.15879 7.1541-1.362 10.763-1.561 4.869 0.60365 10.699 2.1268 18.452 4.2935 4.4901 1.2572 9.755 2.1633 15.768 2.045 22.007-2.4808 30.352 9.4388 46.378-4.964 0.90084-0.86752 1.8226-1.7523 2.7691-2.6591 20.687-20.354 25.473-15.392 36.762-3.4774 3.4544 3.4673 6.7728 6.1951 9.9014 8.609 6.2694 4.8017 11.717 0.92065 14.795-2.0111 1.6624-1.5628 3.8003-4.3365 6.6036-6.3617 6.8189-4.8848 16.912-10.276 32.871-2.477 5.5665 2.7712 10.924 5.7467 16.198 9.2864 17.702 12.029 21.215 11.533 24.728 6.954 0.6636-0.91386 1.6817-1.9344 3.108-3.011 8.8297-6.1539 41.737-5.1534 41.737-5.1534"/>
      <path d="m-56.911 223.95s16.998-0.39961 27.151-0.81659c1.2757-0.0539 2.4622-0.11692 3.5453-0.18758 5.2746-0.38585 8.8641-0.86203 11.688-1.2548 3.5326-0.0726 7.4095-1.016 10.755-1.1151 4.8661 0.7706 10.624 2.381 18.344 4.2169 4.4702 1.0653 9.712 1.7106 15.746 1.2746 22.62-3.6187 29.749 9.2188 46.244-4.764 0.91336-0.82891 1.8518-1.6826 2.8194-2.5663 20.997-19.683 25.312-14.314 36.891-2.6788 3.5875 3.4357 7.0265 5.9511 10.241 8.0476 6.4446 4.17 11.933 0.15887 14.869-2.555 1.5961-1.4535 3.7429-4.1867 6.6695-6.1952 6.717-4.6486 16.794-9.5652 32.749-1.6108 5.6369 2.8596 10.98 5.7764 16.16 9.0891 17.319 11.224 21.265 10.462 24.909 5.9147 0.67799-0.89201 1.7341-1.8635 3.1958-2.8721 9.1484-5.828 41.513-4.8708 41.513-4.8708"/>
      <path d="m-56.548 224.67s16.774-0.38295 26.953-0.78499c1.2652-0.0514 2.4441-0.11066 3.5199-0.17648 5.0885-0.35095 8.7268-0.73046 11.639-1.0163 3.7622 0.0135 7.6649-0.66993 10.747-0.66912 4.8633 0.93756 10.549 2.6352 18.236 4.1403 4.4504 0.87353 9.6689 1.258 15.724 0.50424 23.234-4.7566 29.145 8.9988 46.11-4.5639 0.92588-0.79031 1.881-1.613 2.8698-2.4735 21.308-19.013 25.151-13.236 37.02-1.8802 3.7206 3.4041 7.2802 5.7071 10.58 7.4863 6.6198 3.5383 12.148-0.60291 14.944-3.0989 1.5297-1.3442 3.6856-4.037 6.7354-6.0287 6.615-4.4125 16.677-8.8541 32.628-0.7446 5.7072 2.9481 11.037 5.8061 16.122 8.8918 16.935 10.418 21.316 9.3906 25.089 4.8754 0.69236-0.87016 1.7864-1.7925 3.2835-2.7332 9.4671-5.5022 41.289-4.5883 41.289-4.5883"/>
      <path d="m-56.184 225.38s16.551-0.36628 26.755-0.75339c1.2548-0.0489 2.426-0.1044 3.4945-0.16538 4.9024-0.31604 8.5895-0.59889 11.591-0.77785 3.9917 0.0997 7.9204-0.32389 10.738-0.22316 4.8604 1.1045 10.474 2.8894 18.129 4.0637 4.4305 0.68172 9.6258 0.80538 15.702-0.26615 23.847-5.8946 28.541 8.7788 45.976-4.3638 0.9384-0.7517 1.9102-1.5433 2.9202-2.3807 21.618-18.342 24.989-12.159 37.149-1.0817 3.8536 3.3725 7.5338 5.4631 10.919 6.9249 6.795 2.9066 12.363-1.3647 15.019-3.6427 1.4634-1.2349 3.6282-3.8873 6.8012-5.8622 6.513-4.1764 16.559-8.143 32.506 0.1216 5.7776 3.0365 11.093 5.8358 16.084 8.6945 16.552 9.612 21.366 8.3193 25.27 3.836 0.70674-0.8483 1.8387-1.7216 3.3712-2.5943 9.7858-5.1764 41.065-4.3057 41.065-4.3057"/>
      <path d="m-55.82 226.09s16.327-0.34961 26.557-0.72179c1.2443-0.0464 2.408-0.0982 3.4691-0.15428 4.7164-0.28114 8.4522-0.46731 11.542-0.53936 4.2213 0.18587 8.1758 0.0221 10.73 0.22281 4.8576 1.2715 10.399 3.1436 18.021 3.9871 4.4107 0.48991 9.5828 0.35274 15.68-1.0365 24.46-7.0325 27.937 8.5589 45.842-4.1637 0.95092-0.71309 1.9394-1.4736 2.9706-2.2879 21.929-17.671 24.828-11.081 37.278-0.28306 3.9867 3.3409 7.7875 5.2191 11.258 6.3635 6.9702 2.2749 12.578-2.1265 15.093-4.1866 1.397-1.1256 3.5708-3.7376 6.8671-5.6956 6.4111-3.9402 16.442-7.4319 32.385 0.9878 5.8479 3.125 11.15 5.8655 16.046 8.4972 16.168 8.8063 21.416 7.248 25.451 2.7967 0.72113-0.82645 1.891-1.6506 3.459-2.4554 10.104-4.8505 40.841-4.0232 40.841-4.0232"/>
      <path d="m-55.456 226.81s16.104-0.33294 26.359-0.69018c1.2338-0.0439 2.3899-0.0919 3.4437-0.14319 4.5303-0.24623 8.3149-0.33574 11.494-0.30087 4.4508 0.27204 8.4312 0.36818 10.722 0.66877 4.8547 1.4384 10.324 3.3978 17.913 3.9106 4.3909 0.29809 9.5397-0.0999 15.657-1.8069 25.073-8.1704 27.333 8.3389 45.708-3.9636 0.96344-0.67448 1.9686-1.4039 3.0209-2.1951 22.239-17 24.667-10.003 37.406 0.51552 4.1197 3.3093 8.0412 4.9751 11.598 5.8021 7.1454 1.6432 12.793-2.8882 15.168-4.7304 1.3307-1.0164 3.5134-3.5879 6.933-5.5291 6.3091-3.7041 16.324-6.7208 32.264 1.854 5.9183 3.2134 11.206 5.8952 16.008 8.2999 15.784 8.0005 21.467 6.1767 25.631 1.7574 0.7355-0.8046 1.9434-1.5797 3.5467-2.3164 10.423-4.5247 40.617-3.7406 40.617-3.7406"/>
      <path d="m-55.092 227.52s15.88-0.31628 26.161-0.65858c1.2234-0.0414 2.3718-0.0856 3.4184-0.13209 4.3443-0.21133 8.1777-0.20416 11.445-0.0624 4.6804 0.3582 8.6866 0.71421 10.714 1.1147 4.8519 1.6054 10.25 3.652 17.806 3.834 4.371 0.10628 9.4966-0.55253 15.635-2.5773 25.686-9.3083 26.729 8.1189 45.574-3.7635 0.97596-0.63588 1.9978-1.3342 3.0713-2.1022 22.55-16.329 24.506-8.9255 37.535 1.3141 4.2528 3.2777 8.2949 4.7312 11.937 5.2408 7.3205 1.0115 13.008-3.65 15.243-5.2743 1.2644-0.90706 3.456-3.4381 6.9988-5.3626 6.2071-3.4679 16.206-6.0098 32.142 2.7202 5.9886 3.3018 11.263 5.9249 15.97 8.1026 15.401 7.1947 21.517 5.1054 25.812 0.71811 0.74988-0.78276 1.9957-1.5087 3.6345-2.1775 10.742-4.1988 40.393-3.458 40.393-3.458"/>
      <path d="m-54.728 228.23s15.656-0.29961 25.963-0.62698c1.2129-0.0389 2.3538-0.0794 3.393-0.12099 4.1582-0.17642 8.0404-0.0726 11.397 0.17611 4.9099 0.44437 8.9421 1.0602 10.706 1.5607 4.849 1.7723 10.175 3.9062 17.698 3.7574 4.3512-0.0855 9.4535-1.0052 15.613-3.3477 26.3-10.446 26.125 7.8989 45.44-3.5634 0.98848-0.59727 2.027-1.2646 3.1217-2.0094 22.86-15.658 24.344-7.8478 37.664 2.1127 4.3859 3.2461 8.5486 4.4872 12.276 4.6794 7.4957 0.37982 13.223-4.4118 15.317-5.8182 1.198-0.79777 3.3986-3.2884 7.0647-5.1961 6.1052-3.2318 16.089-5.2987 32.021 3.5864 6.059 3.3903 11.32 5.9546 15.932 7.9053 15.017 6.3889 21.568 4.0342 25.993-0.32121 0.76427-0.7609 2.048-1.4378 3.7222-2.0386 11.061-3.873 40.168-3.1755 40.168-3.1755"/>
     </g>
    </g>
   </g>
  </g>
  <rect x="85.278" y="51.53" width="3.6" height="58.762" fill="#fff" stroke-width=".26458"/>
 </g>
</svg>
